<svg width="292" height="292" viewBox="0 0 292 292" fill="none" xmlns="http://www.w3.org/2000/svg">
<circle cx="146" cy="146" r="146" class="circle"/>
<g clip-path="url(#clip0_484_4672)">
<path d="M237.058 250.518C217.751 250.518 202.098 234.836 202.098 215.496C202.098 196.156 217.751 180.475 237.058 180.475C256.364 180.475 272.017 196.156 272.017 215.496C272.017 234.836 256.364 250.518 237.058 250.518Z" fill="#A66CFF"/>
<path d="M265.562 72.5747H252.146V102.587H265.562V72.5747Z" fill="#A66CFF"/>
<path d="M247.813 12.7583H226.33V60.8152H247.813V12.7583Z" fill="#A66CFF"/>
<path d="M286 216.037H108.525V292H286V216.037Z" fill="#6951AF"/>
<path d="M272.018 175.635H202.104V185.335H272.018V175.635Z" fill="#6951AF"/>
<path d="M237.057 135.226C247.75 135.226 256.417 133.237 256.417 130.784C256.417 128.331 247.75 126.342 237.057 126.342C226.365 126.342 217.697 128.331 217.697 130.784C217.697 133.237 226.365 135.226 237.057 135.226Z" fill="white"/>
<path d="M256.956 43.1021H217.697V130.919H256.956V43.1021Z" fill="#6951AF"/>
<path d="M217.698 77.5767V106.131H205.393C175.945 106.131 151.99 130.129 151.99 159.629V216.036H123.485V159.629C123.485 114.387 160.231 77.5767 205.393 77.5767H217.698V77.5767Z" fill="#A66CFF"/>
<path d="M242.981 0H230.898V40.5908H242.981V0Z" fill="#A66CFF"/>
<path d="M241.902 15.0874H229.463V40.5908" fill="#A66CFF"/>
<path d="M241.903 15.0874C239.827 15.3642 237.758 15.5532 235.683 15.6882C234.645 15.7692 233.607 15.8232 232.576 15.8705C231.539 15.9312 230.501 15.965 229.47 15.992L230.373 15.0874C230.454 17.2138 230.454 19.3402 230.481 21.4666C230.46 23.5931 230.467 25.7195 230.386 27.8459C230.332 29.9723 230.231 32.0987 230.083 34.2251C229.948 36.3515 229.753 38.4779 229.47 40.6043C229.187 38.4779 228.991 36.3515 228.857 34.2251C228.715 32.0987 228.607 29.9723 228.553 27.8459C228.472 25.7195 228.479 23.5931 228.459 21.4666C228.486 19.3402 228.486 17.2138 228.567 15.0874L228.601 14.1626L229.463 14.1828C230.501 14.2099 231.539 14.2504 232.57 14.3044C233.607 14.3516 234.645 14.4056 235.676 14.4866C237.752 14.6216 239.827 14.8106 241.903 15.0874Z" fill="white"/>
<path d="M241.903 1.8833H233.014C233.014 1.8833 232.731 11.1585 233.014 11.3678" fill="#A66CFF"/>
<path d="M241.903 1.88318C240.42 2.29496 238.938 2.49748 237.462 2.65949C235.979 2.808 234.497 2.88226 233.021 2.88901L234.025 1.91018C233.992 3.48305 233.897 5.06267 233.722 6.64229C233.641 7.4321 233.52 8.21516 233.405 9.00497L233.196 10.1863L233.089 10.7804C233.055 10.9761 232.994 11.1786 233.021 11.3744C232.792 11.0166 232.731 10.5981 232.624 10.2066C232.529 9.80828 232.462 9.41 232.388 9.01172C232.273 8.21516 232.165 7.4186 232.105 6.62204C231.977 5.02892 231.956 3.44255 232.01 1.85618L232.044 0.870605L233.014 0.877356C234.497 0.884106 235.979 0.958362 237.455 1.10687C238.938 1.27564 240.42 1.47815 241.903 1.88318Z" fill="white"/>
<path d="M253.999 46.1666C252.604 46.2881 251.209 46.3623 249.814 46.4433C248.419 46.5379 247.024 46.5986 245.629 46.6526C242.84 46.7674 240.05 46.8416 237.267 46.8956C235.872 46.9361 234.477 46.9294 233.082 46.9496C231.687 46.9699 230.292 46.9766 228.897 46.9631C227.502 46.9699 226.108 46.9159 224.713 46.8956L220.528 46.7269L221.195 46.0586C221.067 49.4676 220.885 52.8833 220.851 56.2923C220.804 59.7013 220.851 63.1171 220.959 66.5261L221.31 76.7599L221.438 81.8768L221.512 86.9936C221.653 93.8184 221.633 100.636 221.485 107.461C221.417 110.87 221.316 114.286 221.168 117.695C221.04 121.104 220.872 124.52 220.629 127.929H220.427C220.184 124.52 220.023 121.104 219.888 117.695C219.733 114.286 219.638 110.87 219.571 107.461C219.423 100.636 219.403 93.8184 219.544 86.9936L219.618 81.8768L219.746 76.7599L220.097 66.5261C220.205 63.1171 220.252 59.7013 220.205 56.2923C220.171 52.8833 219.996 49.4676 219.861 46.0586L219.834 45.4173L220.521 45.3903L224.706 45.2215C226.101 45.1945 227.496 45.1472 228.891 45.154C230.285 45.1405 231.68 45.1472 233.075 45.1675C234.47 45.1878 235.865 45.181 237.26 45.2215C240.05 45.2755 242.84 45.3498 245.623 45.4645C247.017 45.5253 248.412 45.586 249.807 45.6738C251.202 45.7615 252.597 45.829 253.992 45.9506V46.1666H253.999Z" fill="white"/>
<path d="M200.52 102.797C199.779 101.143 199.247 99.4487 198.762 97.7476C198.29 96.0397 197.899 94.325 197.569 92.5902C197.239 90.8553 196.983 89.1137 196.801 87.3518C196.632 85.5899 196.511 83.8213 196.605 82.0054C197.347 83.6592 197.879 85.3536 198.364 87.0548C198.836 88.7626 199.227 90.4773 199.557 92.2121C199.88 93.947 200.136 95.6887 200.318 97.4505C200.493 99.2124 200.608 100.988 200.52 102.797Z" fill="white"/>
<path d="M186.605 106.969C185.365 105.646 184.308 104.221 183.297 102.77C182.293 101.312 181.363 99.8199 180.487 98.2876C179.611 96.7552 178.795 95.1958 178.054 93.5892C177.32 91.9826 176.626 90.3422 176.12 88.6006C177.36 89.9169 178.418 91.348 179.429 92.7927C180.433 94.2508 181.363 95.7426 182.239 97.275C183.115 98.8074 183.923 100.367 184.671 101.973C185.399 103.593 186.093 105.227 186.605 106.969Z" fill="white"/>
<path d="M172.562 114.921C171.181 113.753 169.968 112.457 168.795 111.134C167.63 109.804 166.531 108.427 165.487 107.009C164.442 105.591 163.452 104.133 162.528 102.621C161.612 101.109 160.736 99.5633 160.035 97.8892C161.423 99.057 162.636 100.353 163.809 101.676C164.975 103.006 166.073 104.383 167.117 105.808C168.162 107.225 169.152 108.69 170.076 110.195C170.985 111.707 171.861 113.253 172.562 114.921Z" fill="white"/>
<path d="M159.179 126.316C157.575 125.472 156.12 124.466 154.691 123.426C153.269 122.373 151.901 121.266 150.581 120.105C149.26 118.944 147.979 117.729 146.753 116.453C145.533 115.171 144.354 113.848 143.31 112.369C144.913 113.213 146.376 114.219 147.804 115.258C149.226 116.311 150.594 117.419 151.915 118.586C153.236 119.747 154.516 120.963 155.736 122.238C156.949 123.514 158.135 124.837 159.179 126.316Z" fill="white"/>
<path d="M151.12 140.309C149.314 140.167 147.575 139.83 145.85 139.445C144.132 139.047 142.434 138.574 140.756 138.034C139.078 137.494 137.427 136.887 135.796 136.212C134.172 135.516 132.562 134.781 131.012 133.835C132.818 133.97 134.556 134.308 136.281 134.7C138 135.098 139.698 135.57 141.376 136.117C143.054 136.657 144.705 137.265 146.335 137.947C147.959 138.628 149.577 139.371 151.12 140.309Z" fill="white"/>
<path d="M148.397 155.39C146.639 155.809 144.88 156.025 143.121 156.187C141.362 156.335 139.603 156.403 137.845 156.403C136.086 156.403 134.327 156.335 132.568 156.187C130.81 156.025 129.051 155.815 127.292 155.39C129.051 154.965 130.81 154.755 132.568 154.593C134.327 154.445 136.086 154.377 137.845 154.377C139.603 154.377 141.362 154.445 143.121 154.593C144.88 154.755 146.639 154.965 148.397 155.39Z" fill="white"/>
<path d="M148.397 172.55C146.639 172.968 144.88 173.184 143.121 173.346C141.362 173.495 139.603 173.562 137.845 173.562C136.086 173.562 134.327 173.495 132.568 173.346C130.81 173.184 129.051 172.975 127.292 172.55C129.051 172.124 130.81 171.915 132.568 171.753C134.327 171.605 136.086 171.537 137.845 171.537C139.603 171.537 141.362 171.605 143.121 171.753C144.88 171.915 146.639 172.124 148.397 172.55Z" fill="white"/>
<path d="M148.397 189.79C146.639 190.209 144.88 190.425 143.121 190.587C141.362 190.735 139.603 190.803 137.845 190.803C136.086 190.803 134.327 190.735 132.568 190.587C130.81 190.425 129.051 190.216 127.292 189.79C129.051 189.365 130.81 189.156 132.568 188.994C134.327 188.845 136.086 188.778 137.845 188.778C139.603 188.778 141.362 188.845 143.121 188.994C144.88 189.156 146.639 189.365 148.397 189.79Z" fill="white"/>
<path d="M148.397 207.565C146.639 207.983 144.88 208.199 143.121 208.361C141.362 208.51 139.603 208.577 137.845 208.577C136.086 208.577 134.327 208.51 132.568 208.361C130.81 208.199 129.051 207.99 127.292 207.565C129.051 207.14 130.81 206.93 132.568 206.768C134.327 206.62 136.086 206.552 137.845 206.552C139.603 206.552 141.362 206.62 143.121 206.768C144.88 206.937 146.639 207.146 148.397 207.565Z" fill="white"/>
<path d="M252.651 53.2954C252.819 53.6194 252.813 54.011 252.88 54.362L253.008 55.4556L253.197 57.6495C253.311 59.1144 253.386 60.5792 253.473 62.0441C253.615 64.9738 253.729 67.9035 253.797 70.8332C253.891 73.763 253.904 76.6927 253.952 79.6224L253.965 88.4116L253.857 97.194C253.776 100.124 253.736 103.047 253.621 105.976C253.419 111.829 253.143 117.689 252.658 123.534C252.301 117.675 252.139 111.816 252.045 105.963C251.977 103.033 251.984 100.11 251.95 97.1805L251.957 88.3981L252.051 79.6156C252.119 76.6859 252.146 73.763 252.233 70.8332L252.489 62.0508L252.644 57.663L252.712 55.4691L252.739 54.3687C252.718 54.0177 252.772 53.6262 252.651 53.2954Z" fill="#2C365E"/>
<path d="M258.035 74.6134C258.952 74.4379 259.861 74.3029 260.778 74.2016C261.694 74.0801 262.604 74.0126 263.52 73.9181L264.181 73.8506L264.221 74.6336C264.309 76.4428 264.376 78.2519 264.363 80.0611C264.363 81.8702 264.316 83.6793 264.228 85.4817C264.147 87.2908 263.985 89.0932 263.81 90.8956C263.601 92.698 263.365 94.5004 262.981 96.3028C262.685 94.4869 262.543 92.671 262.429 90.8619C262.341 89.0527 262.274 87.2436 262.28 85.4345C262.28 83.6253 262.328 81.8162 262.415 80.0138C262.496 78.2047 262.651 76.4023 262.833 74.5999L263.527 75.3154C262.611 75.2209 261.701 75.1534 260.784 75.0319C259.861 74.9239 258.952 74.7889 258.035 74.6134Z" fill="#2C365E"/>
<path d="M204.254 177.788C209.685 177.369 215.117 177.147 220.548 176.998C223.264 176.904 225.979 176.883 228.695 176.829L236.842 176.775L244.989 176.829C247.704 176.883 250.42 176.904 253.136 176.998C258.567 177.147 263.998 177.369 269.43 177.788C263.998 178.206 258.567 178.429 253.136 178.578C250.42 178.672 247.704 178.693 244.989 178.747L236.842 178.801L228.695 178.747C225.979 178.693 223.264 178.672 220.548 178.578C215.117 178.423 209.685 178.206 204.254 177.788Z" fill="white"/>
<path d="M269.423 214.167C268.553 211.892 267.698 209.671 266.781 207.484C265.851 205.303 264.867 203.17 263.729 201.138C262.583 199.12 261.303 197.182 259.733 195.515C258.169 193.834 256.269 192.491 253.998 191.606C256.437 191.654 258.897 192.734 260.804 194.361C262.765 195.954 264.274 198.006 265.487 200.153C266.687 202.32 267.61 204.608 268.257 206.964C268.924 209.32 269.369 211.73 269.423 214.167Z" fill="white"/>
<path d="M114.711 219C115.129 224.853 115.351 230.705 115.499 236.558C115.594 239.481 115.614 242.411 115.668 245.334L115.722 254.109L115.668 262.885C115.614 265.808 115.594 268.738 115.499 271.661C115.351 277.513 115.129 283.366 114.711 289.219C114.293 283.366 114.071 277.513 113.923 271.661C113.828 268.738 113.808 265.808 113.754 262.885L113.7 254.109L113.754 245.334C113.808 242.411 113.828 239.481 113.923 236.558C114.071 230.705 114.293 224.853 114.711 219Z" fill="#2C365E"/>
<path d="M122.602 219.007C123.019 224.86 123.242 230.712 123.39 236.565C123.484 239.488 123.505 242.418 123.558 245.341L123.612 254.116L123.558 262.892C123.505 265.815 123.484 268.745 123.39 271.668C123.242 277.52 123.019 283.373 122.602 289.226C122.184 283.373 121.961 277.52 121.813 271.668C121.719 268.745 121.699 265.815 121.645 262.892L121.591 254.116L121.645 245.341C121.699 242.418 121.719 239.488 121.813 236.565C121.961 230.705 122.184 224.86 122.602 219.007Z" fill="#2C365E"/>
<path d="M130.486 219.007C130.904 224.86 131.127 230.712 131.275 236.565C131.369 239.488 131.389 242.418 131.443 245.341L131.497 254.116L131.443 262.892C131.389 265.815 131.369 268.745 131.275 271.668C131.127 277.52 130.904 283.373 130.486 289.226C130.069 283.373 129.846 277.52 129.698 271.668C129.604 268.745 129.583 265.815 129.529 262.892L129.476 254.116L129.529 245.341C129.583 242.418 129.604 239.488 129.698 236.565C129.853 230.712 130.069 224.86 130.486 219.007Z" fill="#2C365E"/>
<path d="M138.377 219.007C138.795 224.86 139.017 230.712 139.165 236.565C139.26 239.488 139.28 242.418 139.334 245.341L139.388 254.116L139.334 262.892C139.28 265.815 139.26 268.745 139.165 271.668C139.017 277.52 138.795 283.373 138.377 289.226C137.959 283.373 137.737 277.52 137.589 271.668C137.494 268.745 137.474 265.815 137.42 262.892L137.366 254.116L137.42 245.341C137.474 242.418 137.494 239.488 137.589 236.565C137.744 230.712 137.959 224.86 138.377 219.007Z" fill="#2C365E"/>
<path d="M146.268 219.014C146.685 224.866 146.908 230.719 147.056 236.572C147.15 239.495 147.171 242.424 147.225 245.347L147.278 254.123L147.225 262.899C147.171 265.822 147.15 268.751 147.056 271.674C146.908 277.527 146.685 283.38 146.268 289.232C145.85 283.38 145.627 277.527 145.479 271.674C145.385 268.751 145.365 265.822 145.311 262.899L145.257 254.123L145.311 245.347C145.365 242.424 145.385 239.495 145.479 236.572C145.627 230.719 145.85 224.866 146.268 219.014Z" fill="#2C365E"/>
<path d="M154.159 219.014C154.577 224.866 154.799 230.719 154.948 236.572C155.042 239.495 155.062 242.424 155.116 245.347L155.17 254.123L155.116 262.899C155.062 265.822 155.042 268.751 154.948 271.674C154.799 277.527 154.577 283.38 154.159 289.232C153.741 283.38 153.519 277.527 153.371 271.674C153.276 268.751 153.256 265.822 153.202 262.899L153.148 254.123L153.202 245.347C153.256 242.424 153.276 239.495 153.371 236.572C153.519 230.719 153.741 224.866 154.159 219.014Z" fill="#2C365E"/>
<path d="M162.043 219.02C162.461 224.873 162.683 230.725 162.831 236.578C162.926 239.501 162.946 242.431 163 245.354L163.054 254.129L163 262.905C162.946 265.828 162.926 268.758 162.831 271.681C162.683 277.533 162.461 283.386 162.043 289.239C161.625 283.386 161.403 277.533 161.255 271.681C161.16 268.758 161.14 265.828 161.086 262.905L161.032 254.129L161.086 245.354C161.14 242.431 161.16 239.501 161.255 236.578C161.41 230.725 161.625 224.873 162.043 219.02Z" fill="#2C365E"/>
<path d="M169.934 219.02C170.351 224.873 170.574 230.725 170.722 236.578C170.816 239.501 170.837 242.431 170.891 245.354L170.944 254.129L170.891 262.905C170.837 265.828 170.816 268.758 170.722 271.681C170.574 277.533 170.351 283.386 169.934 289.239C169.516 283.386 169.293 277.533 169.145 271.681C169.051 268.758 169.031 265.828 168.977 262.905L168.923 254.129L168.977 245.354C169.031 242.431 169.051 239.501 169.145 236.578C169.3 230.725 169.516 224.873 169.934 219.02Z" fill="#2C365E"/>
<path d="M177.825 219.027C178.243 224.88 178.465 230.732 178.614 236.585C178.708 239.508 178.728 242.438 178.782 245.361L178.836 254.136L178.782 262.912C178.728 265.835 178.708 268.765 178.614 271.688C178.465 277.54 178.243 283.393 177.825 289.246C177.407 283.393 177.185 277.54 177.037 271.688C176.942 268.765 176.922 265.835 176.868 262.912L176.814 254.136L176.868 245.361C176.922 242.438 176.942 239.508 177.037 236.585C177.185 230.725 177.407 224.88 177.825 219.027Z" fill="#2C365E"/>
<path d="M185.716 219.027C186.134 224.88 186.356 230.732 186.504 236.585C186.599 239.508 186.619 242.438 186.673 245.361L186.727 254.136L186.673 262.912C186.619 265.835 186.599 268.765 186.504 271.688C186.356 277.54 186.134 283.393 185.716 289.246C185.298 283.393 185.076 277.54 184.927 271.688C184.833 268.765 184.813 265.835 184.759 262.912L184.705 254.136L184.759 245.361C184.813 242.438 184.833 239.508 184.927 236.585C185.076 230.732 185.291 224.88 185.716 219.027Z" fill="#2C365E"/>
<path d="M193.6 219.027C194.017 224.88 194.24 230.732 194.388 236.585C194.482 239.508 194.503 242.438 194.557 245.361L194.61 254.136L194.557 262.912C194.503 265.835 194.482 268.765 194.388 271.688C194.24 277.54 194.017 283.393 193.6 289.246C193.182 283.393 192.959 277.54 192.811 271.688C192.717 268.765 192.697 265.835 192.643 262.912L192.589 254.136L192.643 245.361C192.697 242.438 192.717 239.508 192.811 236.585C192.966 230.732 193.182 224.88 193.6 219.027Z" fill="#2C365E"/>
<path d="M201.491 219.034C201.909 224.886 202.131 230.739 202.28 236.592C202.374 239.515 202.394 242.444 202.448 245.367L202.502 254.143L202.448 262.919C202.394 265.842 202.374 268.771 202.28 271.694C202.131 277.547 201.909 283.4 201.491 289.252C201.073 283.4 200.851 277.547 200.703 271.694C200.609 268.771 200.588 265.842 200.534 262.919L200.48 254.143L200.534 245.367C200.588 242.444 200.609 239.515 200.703 236.592C200.851 230.739 201.073 224.886 201.491 219.034Z" fill="#2C365E"/>
<path d="M209.382 219.034C209.8 224.886 210.022 230.739 210.17 236.592C210.265 239.515 210.285 242.444 210.339 245.367L210.393 254.143L210.339 262.919C210.285 265.842 210.265 268.771 210.17 271.694C210.022 277.547 209.8 283.4 209.382 289.252C208.964 283.4 208.742 277.547 208.593 271.694C208.499 268.771 208.479 265.842 208.425 262.919L208.371 254.143L208.425 245.367C208.479 242.444 208.499 239.515 208.593 236.592C208.742 230.739 208.964 224.886 209.382 219.034Z" fill="#2C365E"/>
<path d="M217.266 219.041C217.683 224.893 217.906 230.746 218.054 236.599C218.148 239.522 218.169 242.451 218.223 245.374L218.276 254.15L218.223 262.926C218.169 265.849 218.148 268.778 218.054 271.701C217.906 277.554 217.683 283.407 217.266 289.259C216.848 283.407 216.625 277.554 216.477 271.701C216.383 268.778 216.363 265.849 216.309 262.926L216.255 254.15L216.309 245.374C216.363 242.451 216.383 239.522 216.477 236.599C216.632 230.746 216.848 224.893 217.266 219.041Z" fill="#2C365E"/>
<path d="M225.157 219.041C225.575 224.893 225.797 230.746 225.946 236.599C226.04 239.522 226.06 242.451 226.114 245.374L226.168 254.15L226.114 262.926C226.06 265.849 226.04 268.778 225.946 271.701C225.797 277.554 225.575 283.407 225.157 289.259C224.739 283.407 224.517 277.554 224.369 271.701C224.275 268.778 224.254 265.849 224.2 262.926L224.146 254.15L224.2 245.374C224.254 242.451 224.275 239.522 224.369 236.599C224.524 230.746 224.739 224.893 225.157 219.041Z" fill="#2C365E"/>
<path d="M233.048 219.047C233.466 224.9 233.688 230.753 233.836 236.605C233.931 239.528 233.951 242.458 234.005 245.381L234.059 254.157L234.005 262.932C233.951 265.855 233.931 268.785 233.836 271.708C233.688 277.561 233.466 283.413 233.048 289.266C232.63 283.413 232.408 277.561 232.259 271.708C232.165 268.785 232.145 265.855 232.091 262.932L232.037 254.157L232.091 245.381C232.145 242.458 232.165 239.528 232.259 236.605C232.408 230.746 232.63 224.893 233.048 219.047Z" fill="#2C365E"/>
<path d="M240.939 219.047C241.356 224.9 241.579 230.753 241.727 236.605C241.821 239.528 241.841 242.458 241.895 245.381L241.949 254.157L241.895 262.932C241.841 265.855 241.821 268.785 241.727 271.708C241.579 277.561 241.356 283.413 240.939 289.266C240.521 283.413 240.298 277.561 240.15 271.708C240.056 268.785 240.036 265.855 239.982 262.932L239.928 254.157L239.982 245.381C240.036 242.458 240.056 239.528 240.15 236.605C240.298 230.753 240.521 224.9 240.939 219.047Z" fill="#2C365E"/>
<path d="M248.822 219.047C249.24 224.9 249.462 230.753 249.611 236.605C249.705 239.528 249.725 242.458 249.779 245.381L249.833 254.157L249.779 262.932C249.725 265.855 249.705 268.785 249.611 271.708C249.462 277.561 249.24 283.413 248.822 289.266C248.405 283.413 248.182 277.561 248.034 271.708C247.94 268.785 247.919 265.855 247.865 262.932L247.812 254.157L247.865 245.381C247.919 242.458 247.94 239.528 248.034 236.605C248.189 230.753 248.405 224.9 248.822 219.047Z" fill="#2C365E"/>
<path d="M256.714 219.054C257.132 224.907 257.354 230.76 257.502 236.612C257.597 239.535 257.617 242.465 257.671 245.388L257.725 254.164L257.671 262.939C257.617 265.862 257.597 268.792 257.502 271.715C257.354 277.568 257.132 283.42 256.714 289.273C256.296 283.42 256.074 277.568 255.925 271.715C255.831 268.792 255.811 265.862 255.757 262.939L255.703 254.164L255.757 245.388C255.811 242.465 255.831 239.535 255.925 236.612C256.08 230.76 256.296 224.907 256.714 219.054Z" fill="#2C365E"/>
<path d="M264.605 219.054C265.022 224.907 265.245 230.76 265.393 236.612C265.487 239.535 265.508 242.465 265.561 245.388L265.615 254.164L265.561 262.939C265.508 265.862 265.487 268.792 265.393 271.715C265.245 277.568 265.022 283.42 264.605 289.273C264.187 283.42 263.964 277.568 263.816 271.715C263.722 268.792 263.702 265.862 263.648 262.939L263.594 254.164L263.648 245.388C263.702 242.465 263.722 239.535 263.816 236.612C263.964 230.76 264.187 224.907 264.605 219.054Z" fill="#2C365E"/>
<path d="M272.495 219.061C272.913 224.913 273.135 230.766 273.284 236.619C273.378 239.542 273.398 242.471 273.452 245.394L273.506 254.17L273.452 262.946C273.398 265.869 273.378 268.798 273.284 271.721C273.135 277.574 272.913 283.427 272.495 289.279C272.077 283.427 271.855 277.574 271.707 271.721C271.612 268.798 271.592 265.869 271.538 262.946L271.484 254.17L271.538 245.394C271.592 242.471 271.612 239.542 271.707 236.619C271.855 230.766 272.071 224.913 272.495 219.061Z" fill="#2C365E"/>
<path d="M280.38 219.061C280.798 224.913 281.02 230.766 281.168 236.619C281.263 239.542 281.283 242.471 281.337 245.394L281.391 254.17L281.337 262.946C281.283 265.869 281.263 268.798 281.168 271.721C281.02 277.574 280.798 283.427 280.38 289.279C279.962 283.427 279.74 277.574 279.592 271.721C279.497 268.798 279.477 265.869 279.423 262.946L279.369 254.17L279.423 245.394C279.477 242.471 279.497 239.542 279.592 236.619C279.746 230.766 279.962 224.913 280.38 219.061Z" fill="#2C365E"/>
<path d="M92.925 113.672C92.5881 113.483 92.2579 113.28 91.9075 113.098L90.8563 112.578L88.7538 111.532C88.0395 111.214 87.305 110.917 86.584 110.607L85.4923 110.148L84.367 109.763C81.3818 108.703 78.2281 107.934 74.9464 107.785L73.7132 107.751C73.3022 107.738 72.8844 107.785 72.4733 107.799L71.8466 107.832L71.2199 107.907C70.8022 107.961 70.3844 108.001 69.9733 108.096C69.5555 108.177 69.1377 108.258 68.7267 108.386C68.3156 108.494 67.8978 108.629 67.507 108.784C66.7388 109.115 65.9301 109.399 65.2158 109.831C62.2509 111.41 59.798 113.705 57.8775 116.25C55.9368 118.795 54.4408 121.583 53.2144 124.439C52.9448 125.06 52.6955 125.681 52.4597 126.309C52.1901 122.927 50.8424 119.592 48.3828 116.784C43.531 111.262 35.7546 109.399 28.9689 111.552C25.4985 117.486 26.0106 125.066 30.8624 130.588C35.5727 135.955 43.0391 137.852 49.6833 135.982C49.5688 136.549 49.4542 137.116 49.3329 137.676C49.0769 139.175 48.8006 140.674 48.6119 142.186C48.3828 143.691 48.248 145.196 48.0863 146.709C48.0054 147.465 47.9717 148.221 47.9111 148.977C47.8639 149.733 47.7898 150.489 47.7628 151.245C47.4596 157.293 47.5674 163.342 47.992 169.363C48.868 181.406 50.9569 193.334 53.8478 205.067L62.9112 202.772C59.3735 191.62 56.5972 180.238 54.9934 168.709C54.205 162.944 53.713 157.145 53.6254 151.353C53.5985 150.631 53.6187 149.908 53.6187 149.179C53.6322 148.457 53.6187 147.728 53.6457 147.006C53.7063 145.561 53.74 144.116 53.8613 142.679C53.9422 141.234 54.1106 139.803 54.2589 138.365C54.461 136.941 54.6295 135.503 54.9125 134.099C55.4246 131.27 56.0985 128.469 57.0554 125.775C58.0055 123.082 59.205 120.476 60.7751 118.12C62.325 115.758 64.3129 113.685 66.7118 112.207C67.2913 111.802 67.9517 111.538 68.5784 111.214C68.8951 111.059 69.2186 110.938 69.5488 110.83C69.8722 110.708 70.2159 110.62 70.5596 110.533C70.8965 110.431 71.2536 110.377 71.6108 110.31L72.1431 110.209L72.689 110.148C73.0528 110.114 73.4167 110.053 73.7806 110.04L74.8858 110.006C77.8575 109.959 80.8764 110.499 83.8009 111.343L84.9061 111.646L85.9842 112.024C86.7053 112.281 87.433 112.524 88.1473 112.794L90.2633 113.692L91.3212 114.144C91.6716 114.306 92.0086 114.482 92.3522 114.65C97.8779 117.324 103.04 120.685 107.979 124.317C103.302 120.402 98.3563 116.716 92.925 113.672Z" fill="#A66CFF"/>
<path d="M78.2754 287.963H33.5984L14.3799 203.069H97.4871L78.2754 287.963Z" fill="#A66CFF"/>
<path d="M104.192 194.388H5V213.019H104.192V194.388Z" fill="#6951AF"/>
<path d="M39.9737 197.635C39.3537 197.911 38.6731 197.986 38.0127 198.094C37.3523 198.188 36.6852 198.276 36.0181 198.337C34.6906 198.478 33.3563 198.566 32.0221 198.647C29.3604 198.802 26.6986 198.87 24.0369 198.897C22.7093 198.924 21.3751 198.89 20.0476 198.89C18.7201 198.883 17.3858 198.863 16.0583 198.816C13.3966 198.755 10.7416 198.627 8.08656 198.465L8.94237 197.635C8.8615 199.626 8.76716 201.611 8.63913 203.602L8.41676 206.586C8.32915 207.578 8.23481 208.577 8.11352 209.57C7.99896 208.577 7.89788 207.578 7.81028 206.586L7.58791 203.602C7.45987 201.611 7.36553 199.626 7.28467 197.635L7.25098 196.811L8.13373 196.804C10.7887 196.784 13.4438 196.784 16.0988 196.825C17.4263 196.831 18.7538 196.858 20.0813 196.899C21.4088 196.939 22.7363 196.946 24.0638 197.007C26.7188 197.101 29.3671 197.216 32.0221 197.358L35.9979 197.574L37.9858 197.675C38.6529 197.675 39.3268 197.77 39.9737 197.635Z" fill="white"/>
<path d="M72.3789 209.576C74.7442 209.509 77.1161 209.32 79.4814 209.266C81.8467 209.191 84.2119 209.151 86.5772 209.151C87.7564 209.137 88.9424 209.151 90.1217 209.171C91.3009 209.191 92.4869 209.185 93.6662 209.232L97.2107 209.34L100.755 209.509L99.8657 210.346C99.9331 209.313 100.041 208.287 100.128 207.254C100.216 206.221 100.331 205.195 100.438 204.162C100.668 202.103 100.924 200.044 101.274 197.992C101.449 200.071 101.523 202.144 101.571 204.209C101.591 205.242 101.618 206.282 101.611 207.315C101.611 208.347 101.631 209.387 101.604 210.42L101.584 211.25L100.715 211.257L97.1635 211.277L93.619 211.237C92.4397 211.23 91.2538 211.169 90.0745 211.142C88.8952 211.108 87.7092 211.068 86.53 211C84.1647 210.886 81.8062 210.73 79.4477 210.514C78.2685 210.406 77.0892 210.292 75.9099 210.143C74.7239 209.988 73.5379 209.866 72.3789 209.576Z" fill="#2C365E"/>
<path d="M20.5928 214.693C22.392 220.431 23.989 226.216 25.5254 232.022C26.3139 234.918 27.0281 237.834 27.7761 240.737L29.9123 249.479L31.9473 258.248C32.5875 261.177 33.2614 264.1 33.8678 267.044C35.1145 272.916 36.287 278.803 37.2708 284.737C35.4716 278.999 33.8678 273.214 32.3382 267.408C31.5498 264.512 30.8422 261.596 30.0875 258.693L27.9513 249.951L25.923 241.182C25.2828 238.253 24.609 235.33 24.0025 232.386C22.7559 226.513 21.5766 220.627 20.5928 214.693Z" fill="white"/>
<path d="M30.2764 112.869C32.6349 112.173 35.1551 112.072 37.6282 112.396C40.1013 112.72 42.5743 113.55 44.7172 114.981C45.7819 115.697 46.759 116.554 47.6081 117.52C48.4504 118.492 49.1445 119.579 49.7038 120.719C50.7887 123.015 51.3076 125.505 51.2537 127.956C50.472 125.634 49.5555 123.44 48.3291 121.489C47.6755 120.537 46.9949 119.626 46.1997 118.822C45.4045 118.019 44.5353 117.297 43.5986 116.676C41.7253 115.413 39.5756 114.556 37.325 113.949C35.0675 113.355 32.709 113.01 30.2764 112.869Z" fill="white"/>
<path d="M31.3545 116.102C33.2278 117.027 34.9731 118.114 36.678 119.255C38.3896 120.382 40.0406 121.597 41.6578 122.846C43.2684 124.101 44.8452 125.411 46.3614 126.795C47.8843 128.172 49.3601 129.603 50.7145 131.189C48.8412 130.265 47.0959 129.185 45.391 128.044C43.6794 126.916 42.0284 125.701 40.4112 124.446C38.8007 123.183 37.2238 121.88 35.7076 120.497C34.1847 119.12 32.709 117.688 31.3545 116.102Z" fill="white"/>
<path d="M51.254 139.202C51.0788 143.637 50.9575 148.059 50.8295 152.48C50.715 156.902 50.6274 161.317 50.661 165.732C50.6543 170.146 50.7689 174.561 51.0721 178.956C51.1395 180.056 51.2136 181.157 51.3349 182.25C51.4562 183.344 51.5236 184.451 51.6921 185.538C51.8538 186.624 51.9953 187.725 52.1705 188.812C52.4131 189.885 52.6422 190.965 52.8646 192.059C51.281 187.9 50.5263 183.458 50.0209 179.05C49.7311 176.843 49.6368 174.615 49.4683 172.401C49.3942 170.18 49.3066 167.959 49.3066 165.738C49.2931 163.517 49.3538 161.297 49.4144 159.076C49.5155 156.855 49.6031 154.641 49.7783 152.426C50.0883 148.005 50.56 143.59 51.254 139.202Z" fill="white"/>
</g>
<defs>
<clipPath id="clip0_484_4672">
<rect width="281" height="292" fill="white" transform="translate(5)"/>
</clipPath>
</defs>
</svg>