<svg width="292" height="293" viewBox="0 0 292 293" fill="none" xmlns="http://www.w3.org/2000/svg">
<circle cx="146" cy="146" r="146" class="circle" />
<g clip-path="url(#clip0_483_4670)">
<path d="M18.123 120.352V293L171.299 292.371V119.791L18.123 120.352ZM161.558 284.173L27.7239 284.797V128.775L161.558 128.213V284.173Z" fill="#6951AF"/>
<path opacity="0.5" d="M285.282 260.848L228.86 161.629V77.3962H234.184V62.2354H195.663V77.3962H200.836V162.724L144.8 261.713C136.999 275.492 147.014 292.562 162.825 292.438L267.593 291.607C283.281 291.484 293.044 274.504 285.282 260.848Z" fill="#F2F2F2"/>
<path opacity="0.5" d="M146.795 61.9712H108.274V77.132H113.122V212.72C113.122 220.784 119.646 227.32 127.695 227.32C135.743 227.32 142.267 220.784 142.267 212.72V77.132H146.795V61.9712Z" fill="#F2F2F2"/>
<path opacity="0.5" d="M92.4302 61H53.9092V76.1608H58.7572V211.749C58.7572 219.812 65.2811 226.348 73.3294 226.348C81.3777 226.348 87.9016 219.812 87.9016 211.749V76.1608H92.4302V61Z" fill="#F2F2F2"/>
<path d="M73.3296 219.739C67.6016 219.739 62.9609 215.09 62.9609 209.351V122.598H83.6983V209.351C83.6983 215.09 79.0576 219.739 73.3296 219.739Z" fill="#A66CFF"/>
<path d="M127.695 219.739C121.967 219.739 117.326 215.09 117.326 209.351V122.598H138.063V209.351C138.063 215.09 133.423 219.739 127.695 219.739Z" fill="#A66CFF"/>
<path d="M198.594 175.941L150.512 258.961C142.856 271.286 151.633 287.25 166.121 287.351L264.208 288.03C277.755 288.126 286.223 273.375 279.33 261.69L229.42 175.941H198.594Z" fill="#A66CFF"/>
<path d="M63.0341 74.6055C63.3591 85.5493 63.5777 96.4988 63.6898 107.443C63.7683 112.917 63.7851 118.387 63.8299 123.861L63.8748 140.28L63.8299 156.699C63.7851 162.173 63.7683 167.642 63.6898 173.117C63.5777 184.061 63.3591 195.011 63.0341 205.954C62.709 195.011 62.4904 184.061 62.3783 173.117C62.2998 167.642 62.283 162.173 62.2382 156.699L62.1934 140.28L62.2382 123.861C62.283 118.387 62.2998 112.917 62.3783 107.443C62.4904 96.4988 62.709 85.5493 63.0341 74.6055Z" fill="white"/>
<path d="M117.399 80.2207C117.724 91.1646 117.943 102.114 118.055 113.058C118.134 118.533 118.15 124.002 118.195 129.477L118.24 145.895L118.195 162.314C118.15 167.789 118.134 173.258 118.055 178.732C117.943 189.676 117.724 200.626 117.399 211.57C117.074 200.626 116.856 189.676 116.744 178.732C116.665 173.258 116.648 167.789 116.603 162.314L116.559 145.895L116.603 129.477C116.648 124.002 116.665 118.533 116.744 113.058C116.856 102.114 117.074 91.1646 117.399 80.2207Z" fill="white"/>
<path d="M198.594 175.941C194.867 183.022 191.05 190.052 187.138 197.026C185.205 200.524 183.215 203.995 181.248 207.476L175.279 217.875L169.231 228.229C167.186 231.666 165.174 235.119 163.1 238.539C158.997 245.4 154.799 252.212 150.512 258.967C154.233 251.886 158.05 244.856 161.962 237.882C163.896 234.384 165.891 230.919 167.853 227.432L173.827 217.033L179.875 206.679C181.915 203.242 183.938 199.794 186.006 196.369C190.109 189.508 194.307 182.696 198.594 175.941Z" fill="white"/>
<path d="M200.556 65.0428C202.994 64.6947 205.432 64.5094 207.875 64.3858C209.097 64.3072 210.313 64.2904 211.535 64.2454L215.195 64.2005C217.633 64.1949 220.071 64.2623 222.515 64.3858C224.953 64.5094 227.391 64.6947 229.835 65.0428C227.396 65.3909 224.958 65.5762 222.515 65.6998C220.077 65.8233 217.639 65.8907 215.195 65.8851L211.535 65.8401C210.313 65.7952 209.097 65.7784 207.875 65.6998C205.432 65.5762 202.994 65.3909 200.556 65.0428Z" fill="white"/>
<path d="M112.91 66.3065C115.348 65.9583 117.786 65.773 120.23 65.6495C121.452 65.5709 122.668 65.554 123.89 65.5091L127.55 65.4642C129.988 65.4586 132.426 65.526 134.869 65.6495C137.307 65.773 139.745 65.9583 142.189 66.3065C139.751 66.6546 137.313 66.8399 134.869 66.9634C132.431 67.087 129.993 67.1543 127.55 67.1487L123.89 67.1038C122.668 67.0589 121.452 67.042 120.23 66.9634C117.786 66.8343 115.348 66.6546 112.91 66.3065Z" fill="white"/>
<path d="M59.665 65.1834C62.1031 64.8353 64.5411 64.65 66.9848 64.5264C68.2066 64.4478 69.4228 64.431 70.6446 64.3861L74.3045 64.3411C76.7425 64.3355 79.1805 64.4029 81.6242 64.5264C84.0622 64.65 86.5003 64.8353 88.9439 65.1834C86.5059 65.5316 84.0678 65.7169 81.6242 65.8404C79.1862 65.9639 76.7481 66.0313 74.3045 66.0257L70.6446 65.9808C69.4228 65.9358 68.2066 65.919 66.9848 65.8404C64.5411 65.7112 62.1031 65.5316 59.665 65.1834Z" fill="white"/>
<path d="M203.778 80.2207C204.137 86.257 204.333 92.2876 204.468 98.3239C204.552 101.339 204.574 104.36 204.625 107.375L204.686 116.427L204.658 125.479C204.619 128.494 204.608 131.515 204.535 134.53C204.423 140.566 204.249 146.603 203.913 152.639C203.554 146.603 203.358 140.572 203.223 134.536C203.139 131.52 203.117 128.5 203.067 125.484L203.005 116.433L203.033 107.381C203.072 104.366 203.083 101.345 203.156 98.3295C203.274 92.2932 203.442 86.257 203.778 80.2207Z" fill="white"/>
<path d="M78.9341 209.632C78.9341 210.295 78.7099 210.957 78.2783 211.502C77.8524 212.047 77.1854 212.462 76.4119 212.58C75.6441 212.704 74.7754 212.485 74.1196 211.934C73.4639 211.39 73.0491 210.519 73.0547 209.638C73.0491 208.756 73.4583 207.88 74.1196 207.335C74.7754 206.785 75.6497 206.566 76.4176 206.69C77.191 206.808 77.858 207.223 78.2839 207.773C78.7099 208.307 78.9341 208.969 78.9341 209.632ZM78.9341 209.632C78.9341 208.969 78.6146 208.318 78.1158 207.925C77.6114 207.532 76.9668 207.403 76.4119 207.526C75.8571 207.644 75.4199 207.97 75.1453 208.357C74.8651 208.745 74.7361 209.183 74.7305 209.626C74.7305 210.07 74.8594 210.508 75.1397 210.901C75.4143 211.294 75.8571 211.614 76.4119 211.732C76.9612 211.856 77.6114 211.727 78.1158 211.328C78.6146 210.946 78.9341 210.295 78.9341 209.632Z" fill="white"/>
<path d="M72.2085 187.733C72.2085 188.396 71.9843 189.058 71.5527 189.603C71.1268 190.148 70.4598 190.563 69.6864 190.681C68.9185 190.805 68.0498 190.586 67.394 190.035C66.7383 189.491 66.3236 188.62 66.3292 187.739C66.3236 186.857 66.7327 185.981 67.394 185.437C68.0498 184.886 68.9241 184.667 69.692 184.791C70.4654 184.909 71.1324 185.324 71.5583 185.875C71.9843 186.408 72.2085 187.071 72.2085 187.733ZM72.2085 187.733C72.2085 187.071 71.889 186.419 71.3902 186.026C70.8858 185.633 70.2412 185.504 69.6864 185.627C69.1315 185.745 68.6943 186.071 68.4197 186.458C68.1395 186.846 68.0106 187.284 68.005 187.728C68.005 188.171 68.1339 188.609 68.4141 189.002C68.6887 189.395 69.1315 189.715 69.6864 189.833C70.2356 189.957 70.8858 189.828 71.3902 189.429C71.889 189.047 72.2085 188.396 72.2085 187.733Z" fill="white"/>
<path d="M76.6919 163.027C76.6919 163.689 76.4677 164.352 76.0361 164.896C75.6102 165.441 74.9432 165.857 74.1698 165.975C73.4019 166.098 72.5332 165.879 71.8774 165.329C71.2217 164.784 70.807 163.914 70.8126 163.032C70.807 162.151 71.2161 161.275 71.8774 160.73C72.5332 160.18 73.4075 159.961 74.1754 160.084C74.9488 160.202 75.6158 160.618 76.0417 161.168C76.4677 161.701 76.6919 162.364 76.6919 163.027ZM76.6919 163.027C76.6919 162.364 76.3724 161.713 75.8736 161.32C75.3692 160.927 74.7246 160.797 74.1698 160.921C73.6149 161.039 73.1777 161.365 72.9031 161.752C72.6229 162.139 72.494 162.577 72.4884 163.021C72.4884 163.465 72.6173 163.903 72.8975 164.296C73.1721 164.689 73.6149 165.009 74.1698 165.127C74.719 165.25 75.3692 165.121 75.8736 164.722C76.3724 164.341 76.6919 163.689 76.6919 163.027Z" fill="white"/>
<path d="M131.618 210.755C131.618 211.418 131.393 212.08 130.962 212.625C130.536 213.17 129.869 213.585 129.096 213.703C128.328 213.827 127.459 213.608 126.803 213.057C126.147 212.513 125.733 211.642 125.738 210.761C125.733 209.879 126.142 209.003 126.803 208.459C127.459 207.908 128.333 207.689 129.101 207.813C129.875 207.931 130.542 208.346 130.968 208.897C131.393 209.43 131.618 210.093 131.618 210.755ZM131.618 210.755C131.618 210.093 131.298 209.441 130.799 209.048C130.295 208.655 129.65 208.526 129.096 208.649C128.541 208.767 128.104 209.093 127.829 209.48C127.549 209.868 127.42 210.306 127.414 210.749C127.414 211.193 127.543 211.631 127.823 212.024C128.098 212.417 128.541 212.737 129.096 212.855C129.645 212.979 130.295 212.85 130.799 212.451C131.298 212.069 131.618 211.418 131.618 210.755Z" fill="white"/>
<path d="M134.981 186.049C134.981 186.711 134.757 187.374 134.325 187.918C133.899 188.463 133.232 188.879 132.459 188.996C131.691 189.12 130.822 188.901 130.167 188.351C129.511 187.806 129.096 186.936 129.102 186.054C129.096 185.173 129.505 184.297 130.167 183.752C130.822 183.202 131.697 182.983 132.464 183.106C133.238 183.224 133.905 183.64 134.331 184.19C134.757 184.723 134.981 185.386 134.981 186.049ZM134.981 186.049C134.981 185.386 134.661 184.735 134.163 184.342C133.658 183.949 133.014 183.819 132.459 183.943C131.904 184.061 131.467 184.386 131.192 184.774C130.912 185.161 130.783 185.599 130.777 186.043C130.777 186.487 130.906 186.925 131.187 187.318C131.461 187.711 131.904 188.031 132.459 188.149C133.008 188.272 133.658 188.143 134.163 187.744C134.661 187.362 134.981 186.711 134.981 186.049Z" fill="white"/>
<path d="M129.376 164.15C129.376 164.812 129.152 165.475 128.721 166.019C128.295 166.564 127.628 166.98 126.854 167.098C126.086 167.221 125.218 167.002 124.562 166.452C123.906 165.907 123.492 165.037 123.497 164.155C123.492 163.274 123.901 162.398 124.562 161.853C125.218 161.303 126.092 161.084 126.86 161.207C127.633 161.325 128.3 161.741 128.726 162.291C129.152 162.824 129.376 163.487 129.376 164.15ZM129.376 164.15C129.376 163.487 129.057 162.836 128.558 162.443C128.054 162.05 127.409 161.92 126.854 162.044C126.299 162.162 125.862 162.488 125.588 162.875C125.307 163.262 125.179 163.7 125.173 164.144C125.173 164.588 125.302 165.026 125.582 165.419C125.857 165.812 126.299 166.132 126.854 166.25C127.404 166.373 128.054 166.244 128.558 165.845C129.057 165.464 129.376 164.812 129.376 164.15Z" fill="white"/>
<path d="M155.13 122.598C156.122 122.429 157.131 122.418 158.128 122.362C159.132 122.323 160.135 122.306 161.138 122.283C163.145 122.25 165.151 122.233 167.158 122.222H167.511L167.522 122.598C167.712 130.504 167.847 138.404 167.903 146.311C167.948 150.264 167.965 154.217 167.97 158.17C167.987 162.123 167.993 166.076 167.97 170.029C167.965 173.982 167.948 177.935 167.903 181.888C167.875 185.841 167.819 189.794 167.757 193.747C167.634 201.653 167.438 209.554 167.146 217.46C166.855 209.554 166.659 201.653 166.535 193.747C166.474 189.794 166.418 185.841 166.39 181.888C166.345 177.935 166.328 173.982 166.322 170.029C166.306 166.076 166.306 162.123 166.322 158.17C166.328 154.217 166.345 150.264 166.39 146.311C166.451 138.404 166.58 130.504 166.771 122.598L167.135 122.968C165.134 122.862 163.133 122.766 161.133 122.688L158.128 122.587C157.131 122.57 156.122 122.502 155.13 122.598Z" fill="#2C365E"/>
<path d="M74.1309 74.5998C75.8571 74.4595 77.5889 74.3415 79.3152 74.2573C81.0414 74.1562 82.7733 74.1001 84.4995 74.0215L85.0544 73.999L85.0768 74.5998C85.1945 78.0644 85.273 81.5289 85.3122 84.9934L85.3458 90.193L85.3178 95.3926C85.2786 98.8572 85.2001 102.322 85.088 105.786C84.9479 109.251 84.7966 112.715 84.5107 116.18C84.2249 112.715 84.0736 109.251 83.9334 105.786C83.8157 102.322 83.7373 98.8572 83.7037 95.3926L83.6756 90.193L83.7093 84.9934C83.7485 81.5289 83.827 78.0644 83.9447 74.5998L84.5219 75.1782C82.7957 75.0996 81.0639 75.0434 79.3376 74.9424C77.5889 74.8525 75.8627 74.7402 74.1309 74.5998Z" fill="#2C365E"/>
<path d="M128.496 76.8459C130.222 76.7056 131.954 76.5876 133.68 76.5034C135.407 76.4023 137.139 76.3462 138.865 76.2676L139.42 76.2451L139.442 76.8459C139.56 80.3105 139.638 83.775 139.677 87.2395L139.711 92.4391L139.683 97.6387C139.644 101.103 139.565 104.568 139.453 108.032C139.313 111.497 139.162 114.961 138.876 118.426C138.59 114.961 138.439 111.497 138.299 108.032C138.181 104.568 138.103 101.103 138.069 97.6387L138.041 92.4391L138.075 87.2395C138.114 83.775 138.192 80.3105 138.31 76.8459L138.887 77.4243C137.161 77.3457 135.429 77.2895 133.703 77.1885C131.954 77.0986 130.228 76.9863 128.496 76.8459Z" fill="#2C365E"/>
<path d="M212.438 77.4074C212.421 77.2726 212.561 77.1884 212.662 77.1378C212.774 77.0873 212.897 77.0536 213.015 77.0199C213.256 76.9638 213.503 76.9245 213.749 76.8964C214.243 76.8346 214.736 76.8065 215.229 76.7841C216.221 76.7448 217.207 76.7504 218.2 76.7672C220.178 76.8065 222.151 76.8908 224.129 77.0087L224.482 77.0312L224.494 77.4074C224.667 84.5891 224.807 91.7708 224.858 98.9526C224.903 102.546 224.914 106.134 224.92 109.728C224.942 113.322 224.936 116.91 224.92 120.503C224.914 124.097 224.892 127.685 224.852 131.279C224.824 134.873 224.768 138.461 224.707 142.054C224.583 149.236 224.387 156.418 224.096 163.599C223.804 156.418 223.614 149.236 223.485 142.054C223.423 138.461 223.367 134.873 223.339 131.279C223.294 127.685 223.272 124.097 223.272 120.503C223.255 116.91 223.249 113.322 223.272 109.728C223.283 106.134 223.294 102.546 223.333 98.9526C223.384 91.7708 223.524 84.5891 223.698 77.4074L224.056 77.806C222.106 77.5646 220.144 77.3568 218.183 77.1996C217.202 77.121 216.221 77.0592 215.235 77.0312C214.741 77.0143 214.254 77.0031 213.761 77.0199C213.514 77.0312 213.273 77.048 213.026 77.0817C212.909 77.1042 212.785 77.1266 212.673 77.1659C212.572 77.2052 212.432 77.2726 212.438 77.4074Z" fill="#2C365E"/>
<path d="M202.31 181.321C200.612 184.976 198.801 188.57 196.918 192.125C195.035 195.679 193.124 199.216 191.078 202.675L187.934 207.824C186.875 209.537 185.827 211.25 184.823 212.99C182.806 216.466 180.934 220.032 179.101 223.609C177.28 227.197 175.424 230.768 173.502 234.3C171.591 237.837 169.691 241.38 167.707 244.879C163.722 251.864 159.614 258.776 155.231 265.537L155.085 265.452C158.543 258.175 162.287 251.05 166.149 243.997C168.088 240.476 170.111 237.001 172.123 233.519C174.13 230.032 176.192 226.585 178.294 223.154C180.385 219.717 182.436 216.258 184.341 212.715C185.3 210.946 186.208 209.155 187.116 207.353L189.856 201.973C191.734 198.413 193.74 194.932 195.786 191.468C197.832 188.003 199.939 184.578 202.164 181.214L202.31 181.321Z" fill="white"/>
<path d="M229.919 185.207C233.915 191.406 237.822 197.661 241.638 203.967C243.566 207.111 245.438 210.284 247.338 213.439L252.954 222.963L258.492 232.531C260.308 235.737 262.157 238.926 263.951 242.149C267.571 248.568 271.102 255.042 274.538 261.572C270.536 255.373 266.63 249.123 262.818 242.812C260.89 239.668 259.018 236.495 257.118 233.339L251.503 223.816L245.965 214.248C244.144 211.042 242.3 207.852 240.512 204.629C236.886 198.211 233.36 191.737 229.919 185.207Z" fill="#2C365E"/>
<path d="M22.7635 152.639C22.842 158.282 22.8644 163.925 22.9036 169.568L22.9485 178.03V186.492C22.9541 197.779 22.9597 209.059 22.8868 220.34L22.7691 237.264L22.6122 254.188L22.416 271.118L22.1694 288.042L21.4576 287.323L48.7244 287.587C53.2698 287.621 57.8152 287.722 62.355 287.783C66.9004 287.851 71.4458 287.929 75.9856 288.036C71.4402 288.143 66.8948 288.221 62.355 288.289C57.8096 288.351 53.2642 288.452 48.7244 288.485L21.4576 288.749L20.7402 288.755L20.7458 288.025L20.8243 271.101L20.9532 254.177L21.1214 237.253L21.3343 220.329C21.4801 209.048 21.7042 197.767 21.9228 186.481L22.091 178.019L22.2983 169.557C22.4441 163.919 22.5786 158.282 22.7635 152.639Z" fill="#2C365E"/>
</g>
<defs>
<clipPath id="clip0_483_4670">
<rect width="270" height="232" fill="white" transform="translate(18 61)"/>
</clipPath>
</defs>
</svg>
