<svg width="292" height="292" viewBox="0 0 292 292" fill="none" xmlns="http://www.w3.org/2000/svg">
<circle cx="146" cy="146" r="146" fill="#2C365E"/>
<g clip-path="url(#clip0_484_4673)">
<path d="M106.961 165.472H23.041V268.198H106.961V165.472Z" fill="#A66CFF"/>
<path d="M106.961 165.471H56.8564V152.943L106.961 161.713V165.471Z" fill="#6951AF"/>
<path d="M29.9307 249.453L29.083 214.956H65.0004V218.714H32.9319L33.6879 249.362L29.9307 249.453Z" fill="#6951AF"/>
<path d="M39.3242 249.408V224.328H65.0008" fill="#A66CFF"/>
<path d="M41.2026 249.408H37.4453V222.443H65.0005V226.207H41.2026V249.408Z" fill="#6951AF"/>
<path d="M48.002 249.408V233.121H65.0013" fill="#A66CFF"/>
<path d="M49.8803 249.408H46.123V231.242H65.001V235H49.8803V249.408Z" fill="#6951AF"/>
<path d="M91.3018 209.943H65.001V240.007H91.3018V209.943Z" fill="#6951AF"/>
<path d="M194.632 249.408H3V292H194.632V249.408Z" fill="#6951AF"/>
<path d="M79.4051 186.771C82.173 186.771 84.4167 184.527 84.4167 181.758C84.4167 178.99 82.173 176.746 79.4051 176.746C76.6373 176.746 74.3936 178.99 74.3936 181.758C74.3936 184.527 76.6373 186.771 79.4051 186.771Z" fill="#6951AF"/>
<path d="M79.4051 203.057C82.173 203.057 84.4167 200.813 84.4167 198.044C84.4167 195.276 82.173 193.032 79.4051 193.032C76.6373 193.032 74.3936 195.276 74.3936 198.044C74.3936 200.813 76.6373 203.057 79.4051 203.057Z" fill="#6951AF"/>
<path d="M140.764 249.408H137.007V99.1968H157.059V139.79H153.302V102.955H140.764V249.408Z" fill="#6951AF"/>
<path d="M194.632 135.408H152.048V249.408H194.632V135.408Z" fill="#A66CFF"/>
<path d="M150.044 95.3185H145.284C144.179 95.3185 143.279 94.4191 143.279 93.3135V66.005C143.279 64.9051 144.179 64 145.284 64H150.044C151.143 64 152.048 64.8994 152.048 66.005V93.3135C152.048 94.4191 151.149 95.3185 150.044 95.3185Z" fill="#A66CFF"/>
<path d="M151.4 100.331H143.926C142.184 100.331 140.775 98.9219 140.775 97.1803V89.0571H154.55V97.1803C154.55 98.9219 153.141 100.331 151.4 100.331Z" fill="#6951AF"/>
<path d="M69.6742 238.116C69.468 236.146 69.3478 234.181 69.2275 232.21C69.1187 230.239 69.0385 228.274 68.9697 226.304C68.9125 224.333 68.8609 222.368 68.8437 220.398C68.8323 218.427 68.7979 216.462 68.8266 214.491L68.838 213.638L69.6742 213.643C71.3238 213.655 72.979 213.661 74.6285 213.706C76.2781 213.735 77.9333 213.781 79.5829 213.855C81.2324 213.907 82.8877 214.004 84.5372 214.102C86.1867 214.205 87.842 214.319 89.4915 214.491C87.842 214.663 86.1867 214.778 84.5372 214.881C82.8877 214.972 81.2324 215.07 79.5829 215.127C77.9333 215.196 76.2781 215.242 74.6285 215.276C72.979 215.322 71.3238 215.328 69.6742 215.339L70.5219 214.491C70.5505 216.462 70.5162 218.427 70.5047 220.398C70.4818 222.368 70.436 224.333 70.3787 226.304C70.3157 228.274 70.2298 230.239 70.121 232.21C70.0007 234.181 69.8804 236.151 69.6742 238.116Z" fill="white"/>
<path d="M28.6766 166.102C28.7855 166.119 28.8198 166.245 28.8656 166.331C28.9057 166.422 28.9344 166.52 28.9687 166.617C29.026 166.812 29.0718 167.007 29.1177 167.207C29.1978 167.602 29.2608 168.003 29.3238 168.399C29.4441 169.195 29.5186 169.997 29.6045 170.793C29.742 172.392 29.8451 173.99 29.9081 175.588C29.9882 177.186 29.9997 178.785 30.0283 180.383C30.0398 181.981 30.0226 183.58 30.0112 185.178L29.8737 189.967C29.7935 191.565 29.742 193.158 29.6217 194.751C29.4155 197.941 29.1406 201.126 28.6824 204.306C28.4246 201.104 28.3273 197.913 28.2814 194.716C28.2413 193.118 28.2643 191.525 28.2471 189.927L28.2929 185.144L28.4017 180.36C28.4647 178.768 28.4934 177.175 28.5678 175.582L28.7625 170.805C28.8026 170.009 28.8256 169.212 28.8485 168.416C28.8599 168.021 28.8656 167.62 28.8599 167.224C28.8599 167.024 28.8542 166.829 28.8427 166.629C28.837 166.531 28.8256 166.434 28.8084 166.336C28.7797 166.256 28.774 166.136 28.6766 166.102Z" fill="white"/>
<path d="M108.839 252.541C104.67 252.793 100.494 252.977 96.3248 253.183C92.1551 253.395 87.9798 253.561 83.8044 253.738L71.284 254.208L58.7636 254.615C50.4129 254.85 42.0621 255.09 33.7114 255.262C29.536 255.365 25.3606 255.44 21.1852 255.509C17.0099 255.589 12.8345 255.652 8.65912 255.698L9.29487 255.05L9.18605 262.83L9.04859 270.609L8.86531 278.389C8.81376 280.984 8.73357 283.573 8.64766 286.168C8.56175 283.573 8.48156 280.984 8.43001 278.389L8.24673 270.609L8.09782 262.824L7.98899 255.045L7.97754 254.42L8.61902 254.397C12.7944 254.237 16.964 254.088 21.1394 253.962C25.3148 253.824 29.4902 253.693 33.6655 253.584C42.0163 253.337 50.367 253.16 58.7178 252.977L71.2439 252.753L83.77 252.598C87.9454 252.564 92.1208 252.518 96.3019 252.524C100.483 252.518 104.658 252.495 108.839 252.541Z" fill="white"/>
<path d="M154.551 141.257C157.523 140.884 160.496 140.678 163.469 140.535C164.958 140.449 166.441 140.42 167.93 140.363L172.392 140.289L176.854 140.306C178.343 140.346 179.826 140.352 181.316 140.42C184.294 140.529 187.266 140.695 190.245 141.039C187.272 141.417 184.3 141.618 181.327 141.761C179.838 141.847 178.354 141.875 176.865 141.933L172.403 142.001L167.942 141.979C166.453 141.938 164.969 141.933 163.48 141.864C160.507 141.761 157.529 141.595 154.551 141.257Z" fill="white"/>
<path d="M154.751 150.681C157.724 150.308 160.696 150.102 163.669 149.959C165.158 149.873 166.641 149.844 168.13 149.787L172.592 149.712L177.054 149.73C178.543 149.77 180.027 149.775 181.516 149.844C184.494 149.953 187.467 150.119 190.445 150.457C187.472 150.835 184.5 151.041 181.527 151.185C180.038 151.276 178.555 151.299 177.065 151.357L172.604 151.431L168.142 151.414C166.653 151.374 165.169 151.368 163.68 151.299C160.708 151.185 157.729 151.019 154.751 150.681Z" fill="white"/>
<path d="M154.952 160.104C157.925 159.731 160.897 159.525 163.87 159.376C165.359 159.285 166.843 159.262 168.332 159.204L172.793 159.13L177.255 159.147C178.744 159.187 180.228 159.193 181.717 159.262C184.695 159.37 187.668 159.537 190.646 159.875C187.674 160.253 184.701 160.459 181.728 160.602C180.239 160.694 178.756 160.717 177.267 160.774L172.805 160.848L168.343 160.831C166.854 160.797 165.371 160.785 163.881 160.717C160.903 160.602 157.93 160.436 154.952 160.104Z" fill="white"/>
<path d="M155.152 169.527C158.125 169.149 161.098 168.943 164.07 168.8C165.559 168.708 167.043 168.685 168.532 168.628L172.994 168.548L177.455 168.565C178.945 168.605 180.428 168.605 181.917 168.68C184.895 168.783 187.868 168.949 190.846 169.287C187.874 169.665 184.901 169.871 181.929 170.02C180.439 170.112 178.956 170.135 177.467 170.192L173.005 170.266L168.543 170.249C167.054 170.215 165.571 170.203 164.082 170.135C161.103 170.026 158.131 169.86 155.152 169.527Z" fill="white"/>
<path d="M155.353 178.946C158.325 178.568 161.298 178.361 164.27 178.212C165.759 178.121 167.243 178.092 168.732 178.035L173.194 177.955L177.656 177.966C179.145 178.006 180.628 178.006 182.117 178.075C185.096 178.178 188.068 178.344 191.047 178.682C188.074 179.06 185.101 179.272 182.129 179.415C180.64 179.507 179.156 179.53 177.667 179.593L173.205 179.667L168.744 179.65C167.254 179.616 165.771 179.61 164.282 179.541C161.303 179.45 158.325 179.284 155.353 178.946Z" fill="white"/>
<path d="M155.548 188.369C158.52 187.991 161.493 187.785 164.466 187.636C165.955 187.544 167.438 187.515 168.927 187.458L173.389 187.378L177.851 187.389C179.34 187.424 180.823 187.429 182.313 187.498C185.291 187.601 188.264 187.767 191.242 188.1C188.269 188.478 185.297 188.69 182.324 188.839C180.835 188.93 179.351 188.953 177.862 189.016L173.401 189.097L168.939 189.085C167.45 189.051 165.966 189.045 164.477 188.976C161.504 188.867 158.526 188.701 155.548 188.369Z" fill="white"/>
<path d="M155.748 197.793C158.721 197.415 161.693 197.203 164.666 197.054C166.155 196.962 167.638 196.933 169.128 196.876L173.589 196.796L178.051 196.807C179.54 196.842 181.024 196.847 182.513 196.916C185.491 197.019 188.464 197.185 191.442 197.518C188.469 197.896 185.497 198.108 182.524 198.257C181.035 198.348 179.552 198.377 178.063 198.434L173.601 198.514L169.139 198.503C167.65 198.469 166.166 198.463 164.677 198.394C161.705 198.291 158.726 198.125 155.748 197.793Z" fill="white"/>
<path d="M155.948 207.216C158.921 206.838 161.893 206.626 164.866 206.477C166.355 206.386 167.839 206.357 169.328 206.3L173.79 206.214L178.251 206.225C179.74 206.26 181.224 206.265 182.713 206.334C185.691 206.437 188.664 206.598 191.642 206.93C188.67 207.314 185.697 207.52 182.724 207.675C181.235 207.766 179.752 207.795 178.263 207.852L173.801 207.932L169.339 207.921C167.85 207.887 166.367 207.881 164.877 207.812C161.899 207.709 158.927 207.549 155.948 207.216Z" fill="white"/>
<path d="M156.148 216.64C159.121 216.262 162.094 216.05 165.066 215.895C166.555 215.804 168.039 215.775 169.528 215.712L173.99 215.626L178.451 215.632C179.941 215.666 181.424 215.672 182.913 215.735C185.892 215.838 188.864 215.998 191.842 216.331C188.87 216.714 185.897 216.926 182.925 217.075C181.436 217.167 179.952 217.196 178.463 217.259L174.001 217.339L169.539 217.327C168.05 217.293 166.567 217.287 165.078 217.224C162.099 217.133 159.127 216.972 156.148 216.64Z" fill="white"/>
<path d="M156.35 226.064C159.322 225.68 162.295 225.468 165.267 225.319C166.757 225.227 168.24 225.199 169.729 225.136L174.191 225.05L178.653 225.056C180.142 225.09 181.625 225.096 183.114 225.159C186.093 225.256 189.065 225.422 192.044 225.749C189.071 226.133 186.098 226.344 183.126 226.499C181.637 226.591 180.153 226.619 178.664 226.682L174.202 226.768L169.741 226.763C168.251 226.728 166.768 226.723 165.279 226.66C162.301 226.551 159.322 226.39 156.35 226.064Z" fill="white"/>
<path d="M156.544 235.487C159.517 235.103 162.489 234.891 165.462 234.737C166.951 234.645 168.434 234.61 169.923 234.553L174.385 234.467L178.847 234.473C180.336 234.507 181.82 234.507 183.309 234.576C186.287 234.674 189.26 234.834 192.238 235.166C189.265 235.55 186.293 235.762 183.32 235.917C181.831 236.008 180.348 236.037 178.858 236.1L174.397 236.186L169.935 236.18C168.446 236.146 166.962 236.14 165.473 236.077C162.501 235.974 159.522 235.814 156.544 235.487Z" fill="white"/>
<path d="M156.744 244.911C159.717 244.527 162.689 244.315 165.662 244.16C167.151 244.069 168.635 244.034 170.124 243.977L174.585 243.885L179.047 243.891C180.536 243.925 182.02 243.925 183.509 243.994C186.487 244.091 189.46 244.252 192.438 244.584C189.466 244.968 186.493 245.186 183.52 245.34C182.031 245.432 180.548 245.461 179.059 245.524L174.597 245.61L170.135 245.604C168.646 245.569 167.163 245.569 165.673 245.501C162.701 245.398 159.722 245.237 156.744 244.911Z" fill="white"/>
<path d="M147.03 87.8027C146.893 85.0185 146.841 82.2344 146.79 79.4446L146.761 75.2684C146.744 73.8763 146.75 72.4843 146.767 71.0922L146.813 71.2469L144.963 68.5258L144.693 68.1362L145.163 68.142C146.772 68.1649 148.388 68.2107 149.997 68.2393L150.306 68.2451L150.112 68.4742C149.298 69.4252 148.496 70.3876 147.666 71.3271C148.393 70.3017 149.144 69.3049 149.883 68.2909L149.997 68.5258C148.388 68.5602 146.772 68.606 145.163 68.6232L145.363 68.2393L147.254 70.9318L147.299 71.0006V71.0865C147.311 72.4785 147.322 73.8706 147.305 75.2627L147.276 79.4388C147.219 82.2344 147.168 85.0185 147.03 87.8027Z" fill="white"/>
<path d="M190.554 252.541C190.795 257.542 190.927 262.543 191.133 267.544L191.608 282.548L191.751 286.294L191.843 288.15L191.877 288.597L191.9 288.786C191.9 288.786 191.906 288.809 191.9 288.786C191.889 288.746 191.917 288.821 191.866 288.683C192.444 287.4 190.457 289.754 191.093 289.731C191.139 289.737 191.064 289.731 191.041 289.731L190.119 289.714L182.622 289.651L167.616 289.496L152.609 289.262C147.609 289.153 142.603 289.078 137.603 288.935C127.597 288.7 117.597 288.362 107.597 287.91C117.608 287.692 127.614 287.583 137.62 287.595C142.626 287.577 147.626 287.618 152.632 287.635L167.638 287.778L182.645 288.03L190.153 288.213L191.11 288.248C191.167 288.253 191.173 288.248 191.293 288.259C191.963 288.248 189.93 290.591 190.514 289.285C190.451 289.124 190.48 289.187 190.463 289.124L190.44 289.004C190.423 288.889 190.417 288.809 190.411 288.723L190.382 288.236C190.354 287.6 190.337 286.97 190.325 286.346L190.285 282.588C190.193 272.557 190.319 262.549 190.554 252.541Z" fill="#2C365E"/>
<path d="M102.573 168.605C102.928 175.027 103.117 181.443 103.243 187.865C103.323 191.073 103.34 194.286 103.386 197.495L103.432 207.124L103.386 216.754C103.34 219.962 103.323 223.176 103.243 226.384C103.117 232.806 102.928 239.222 102.573 245.644C102.218 239.222 102.029 232.806 101.903 226.384C101.823 223.176 101.806 219.962 101.76 216.754L101.714 207.124L101.76 197.495C101.806 194.286 101.823 191.073 101.903 187.865C102.035 181.443 102.218 175.027 102.573 168.605Z" fill="#2C365E"/>
<path d="M85.2706 231.156H76.6621V220.363H85.2706V231.156ZM78.3861 229.437H83.5581V222.082H78.3861V229.437Z" fill="#2C365E"/>
<path d="M292 222.684V131.598H159.694V222.684H216.397V278.824H197.496V291.427H216.397H235.871H253.053V278.824H235.871V222.684H292Z" fill="#6951AF"/>
<path d="M279.48 139.916H170.737V214.778H279.48V139.916Z" fill="#A66CFF"/>
<path d="M206.088 135.035C202.542 135.167 198.997 135.247 195.452 135.333C191.906 135.43 188.361 135.505 184.816 135.562L174.18 135.717L163.544 135.82L164.328 135.035C164.397 141.755 164.386 148.475 164.403 155.194C164.38 161.914 164.38 168.634 164.311 175.353C164.288 178.71 164.26 182.073 164.208 185.43L164.053 195.507C164.002 198.864 163.922 202.226 163.83 205.583C163.75 208.94 163.67 212.303 163.544 215.66C163.418 212.303 163.338 208.94 163.257 205.583C163.171 202.226 163.086 198.864 163.034 195.507L162.879 185.43C162.828 182.073 162.799 178.71 162.776 175.353C162.707 168.634 162.707 161.914 162.685 155.194C162.702 148.475 162.69 141.755 162.759 135.035L162.765 134.245L163.538 134.25L174.174 134.353L184.81 134.508C188.355 134.565 191.901 134.64 195.446 134.737C198.997 134.823 202.542 134.903 206.088 135.035Z" fill="white"/>
<path d="M218.401 225.834C218.756 229.959 218.945 234.084 219.071 238.208C219.151 240.271 219.169 242.333 219.214 244.395L219.26 250.582L219.214 256.769C219.169 258.831 219.151 260.894 219.071 262.956C218.945 267.081 218.756 271.205 218.401 275.33C218.046 271.205 217.857 267.081 217.731 262.956C217.651 260.894 217.634 258.831 217.588 256.769L217.542 250.582L217.588 244.395C217.634 242.333 217.651 240.271 217.731 238.208C217.863 234.084 218.046 229.959 218.401 225.834Z" fill="white"/>
<path d="M233.293 281.402C230.521 281.689 227.743 281.849 224.971 281.992C222.199 282.113 219.421 282.193 216.649 282.233L212.49 282.267L208.332 282.239C205.56 282.199 202.782 282.118 200.01 281.998L200.6 281.408C200.52 282.794 200.463 284.175 200.359 285.561C200.273 286.948 200.153 288.328 200.01 289.715C199.867 288.328 199.747 286.948 199.661 285.561C199.558 284.175 199.5 282.794 199.42 281.408L199.386 280.847L200.004 280.818C202.776 280.698 205.554 280.618 208.326 280.577L212.485 280.549L216.643 280.583C219.415 280.623 222.193 280.703 224.965 280.824C227.749 280.956 230.521 281.116 233.293 281.402Z" fill="white"/>
<path d="M216.649 219.562C219.633 219.441 222.618 219.361 225.602 219.281C228.586 219.201 231.57 219.109 234.554 219.057L243.506 218.903L252.458 218.794L261.41 218.719L270.362 218.691C276.33 218.674 282.298 218.702 288.267 218.725L287.459 219.533L287.551 208.986L287.705 198.44C287.774 194.923 287.837 191.411 287.94 187.894C288.037 184.376 288.118 180.865 288.261 177.347C288.404 180.865 288.484 184.376 288.582 187.894C288.69 191.411 288.748 194.923 288.816 198.44L288.971 208.986L289.063 219.533L289.068 220.341L288.255 220.346C282.287 220.375 276.319 220.409 270.351 220.392L261.399 220.369L252.447 220.301L243.494 220.197L234.542 220.048C231.558 220.003 228.574 219.911 225.59 219.837C222.623 219.762 219.633 219.682 216.649 219.562Z" fill="#2C365E"/>
<path d="M288.277 174.563C287.172 174.563 286.272 173.663 286.272 172.558C286.272 171.452 287.172 170.553 288.277 170.553C289.383 170.553 290.282 171.452 290.282 172.558C290.282 173.663 289.383 174.563 288.277 174.563ZM288.277 171.126C287.487 171.126 286.845 171.767 286.845 172.558C286.845 173.348 287.487 173.99 288.277 173.99C289.067 173.99 289.709 173.348 289.709 172.558C289.709 171.767 289.067 171.126 288.277 171.126Z" fill="#2C365E"/>
</g>
<defs>
<clipPath id="clip0_484_4673">
<rect width="289" height="228" fill="white" transform="translate(3 64)"/>
</clipPath>
</defs>
</svg>
