<svg width="165" height="25" viewBox="0 0 165 25" fill="none" xmlns="http://www.w3.org/2000/svg">
<g clip-path="url(#clip0_481_16)">
<path d="M15.2067 1.19315C15.3863 0.861737 15.6883 0.62975 16.1127 0.497186C16.5371 0.364622 17.074 0.29834 17.7234 0.29834C18.3728 0.29834 18.886 0.352925 19.267 0.464045C19.6479 0.575165 19.9381 0.707728 20.1394 0.861737C20.3408 1.01574 20.4967 1.23798 20.6092 1.52456C20.7217 1.9008 20.777 2.4759 20.777 3.24789V21.6489C20.777 22.1577 20.7592 22.5398 20.7257 22.7933C20.6921 23.0467 20.5855 23.3411 20.4059 23.6725C20.0921 24.269 19.2196 24.5673 17.7866 24.5673C16.2193 24.5673 15.3015 24.1579 15.033 23.3411C14.8988 22.9648 14.8317 22.3917 14.8317 21.6177V14.8882H5.94136V21.6509C5.94136 22.1597 5.92359 22.5418 5.89004 22.7952C5.85648 23.0487 5.74989 23.343 5.57027 23.6744C5.25642 24.271 4.38397 24.5692 2.95094 24.5692C1.38368 24.5692 0.465834 24.1598 0.197387 23.343C0.0671117 22.9668 0 22.3917 0 21.6177V3.2167C0 2.70788 0.0177649 2.32774 0.0513207 2.07236C0.0848765 1.81893 0.191466 1.52456 0.371088 1.19315C0.684934 0.596609 1.55739 0.29834 2.99042 0.29834C4.55767 0.29834 5.48539 0.707728 5.77753 1.52456C5.89004 1.9008 5.94531 2.4759 5.94531 3.24789V10.0106H14.8416V3.2167C14.8416 2.70788 14.8593 2.32774 14.8929 2.07236C14.9225 1.81893 15.0291 1.52456 15.2067 1.19315Z" fill="#2C365E"/>
<path d="M35.0144 0C38.3265 0 41.2025 1.18333 43.6422 3.54803C46.0819 5.91274 47.3017 8.84864 47.3017 12.3499C47.3017 15.8531 46.1372 18.8377 43.81 21.3019C41.4828 23.766 38.6167 24.998 35.2157 24.998C31.8128 24.998 28.921 23.7835 26.5366 21.3506C24.1522 18.9196 22.9619 16.0246 22.9619 12.6638C22.9619 10.8293 23.2975 9.11182 23.9686 7.50741C24.6397 5.90494 25.5358 4.56176 26.655 3.4798C27.7742 2.39785 29.0612 1.54593 30.5159 0.925998C31.9707 0.309966 33.4708 0 35.0144 0ZM28.9052 12.5C28.9052 14.469 29.5487 16.0656 30.8357 17.2918C32.1227 18.518 33.5596 19.1321 35.1486 19.1321C36.7376 19.1321 38.1706 18.5356 39.4457 17.3425C40.7209 16.1494 41.3604 14.5469 41.3604 12.5351C41.3604 10.5232 40.7169 8.91103 39.4299 7.69456C38.143 6.48004 36.704 5.8718 35.117 5.8718C33.5281 5.8718 32.095 6.48589 30.8199 7.7121C29.5428 8.93442 28.9052 10.533 28.9052 12.5Z" fill="#2C365E"/>
<path d="M75.6353 1.22611C75.8149 1.55752 75.9215 1.85578 75.955 2.12091C75.9886 2.38604 76.0064 2.77398 76.0064 3.28085V21.6819C76.0064 23.2064 75.58 24.1031 74.7312 24.3683C74.3049 24.5008 73.768 24.5671 73.1206 24.5671C72.4711 24.5671 71.956 24.5125 71.577 24.4014C71.196 24.2903 70.9059 24.1577 70.7045 24.0037C70.5032 23.8497 70.3473 23.6275 70.2347 23.3409C70.1222 22.9646 70.067 22.3915 70.067 21.6176V10.5095C69.5064 11.1957 68.6912 12.2835 67.6154 13.7748C66.5416 15.2662 65.8587 16.2 65.5665 16.5762C65.2764 16.9525 65.0731 17.2118 64.9625 17.356C64.85 17.5003 64.5757 17.6991 64.1394 17.9526C63.7032 18.206 63.2334 18.3347 62.7301 18.3347C62.2267 18.3347 61.7668 18.2177 61.3543 17.9857C60.9398 17.7537 60.6437 17.5276 60.4641 17.3053L60.1956 16.9408C59.7476 16.3891 58.8633 15.2116 57.5427 13.4103C56.2222 11.609 55.5057 10.642 55.3952 10.5095V21.6838C55.3952 22.1927 55.3774 22.5747 55.3439 22.8282C55.3103 23.0816 55.2037 23.3643 55.0241 23.6742C54.6885 24.2708 53.8161 24.5691 52.4048 24.5691C51.0388 24.5691 50.1901 24.2708 49.8525 23.6742C49.6729 23.3643 49.5663 23.0777 49.5328 22.8126C49.4992 22.5475 49.4814 22.1498 49.4814 21.6195V3.21651C49.4814 2.7077 49.4992 2.32756 49.5328 2.07218C49.5663 1.81874 49.6729 1.52437 49.8525 1.19296C50.1881 0.617871 51.0605 0.331299 52.4719 0.331299C53.0759 0.331299 53.597 0.403429 54.0332 0.54769C54.4694 0.691951 54.7556 0.84011 54.8899 0.996068L55.0912 1.19491L62.7103 11.0729C66.514 6.09978 69.0563 2.81687 70.3315 1.22611C70.7124 0.629568 71.6125 0.331299 73.0337 0.331299C74.4549 0.331299 75.3214 0.629568 75.6353 1.22611Z" fill="#2C365E"/>
<path d="M84.6318 18.7325H94.971C95.4861 18.7325 95.871 18.7501 96.1296 18.7832C96.3862 18.8164 96.6843 18.9216 97.0198 19.099C97.6238 19.409 97.9258 20.2707 97.9258 21.686C97.9258 23.2338 97.5113 24.1404 96.6843 24.4055C96.3033 24.538 95.721 24.6043 94.9374 24.6043H81.6434C80.0761 24.6043 79.1583 24.1852 78.8898 23.345C78.7556 22.9921 78.6885 22.4287 78.6885 21.6548V3.2167C78.6885 2.0899 78.9017 1.32181 79.326 0.912423C79.7504 0.503034 80.5558 0.29834 81.744 0.29834H94.971C95.4861 0.29834 95.871 0.315885 96.1296 0.349026C96.3862 0.382167 96.6843 0.487438 97.0198 0.66484C97.6238 0.974806 97.9258 1.83647 97.9258 3.25179C97.9258 4.79967 97.5113 5.70617 96.6843 5.9713C96.3033 6.10386 95.721 6.17014 94.9374 6.17014H84.6318V9.51933H91.2778C91.793 9.51933 92.1779 9.53688 92.4365 9.57002C92.6931 9.60316 92.9912 9.70843 93.3267 9.88583C93.9307 10.1958 94.2327 11.0575 94.2327 12.4728C94.2327 14.0207 93.8064 14.9272 92.9576 15.1923C92.5766 15.3249 91.9944 15.3911 91.2127 15.3911H84.6338V18.7325H84.6318Z" fill="#2C365E"/>
<path d="M106.05 19.6956H115.181C115.919 19.6956 116.456 19.7794 116.792 19.9451C117.127 20.1108 117.35 20.3701 117.463 20.7249C117.575 21.0777 117.631 21.5495 117.631 22.1343C117.631 22.7211 117.575 23.191 117.463 23.5438C117.35 23.8967 117.161 24.1404 116.892 24.2729C116.466 24.4932 115.886 24.6043 115.145 24.6043H103.059C101.492 24.6043 100.574 24.1852 100.306 23.345C100.172 22.9921 100.104 22.4287 100.104 21.6548V3.2167C100.104 2.70788 100.122 2.32774 100.156 2.07236C100.189 1.81893 100.296 1.52456 100.476 1.19315C100.789 0.596609 101.662 0.29834 103.095 0.29834C104.662 0.29834 105.59 0.707728 105.882 1.52456C105.995 1.9008 106.05 2.4759 106.05 3.24789V19.6956Z" fill="#2C365E"/>
<path d="M134.015 2.02168L143.079 20.5221C143.46 21.2746 143.649 21.838 143.649 22.2123C143.649 23.0077 143 23.7271 141.703 24.3665C140.941 24.7427 140.343 24.9299 139.907 24.9299C139.47 24.9299 139.111 24.8305 138.833 24.6316C138.552 24.4328 138.351 24.2222 138.229 24.002C138.106 23.7817 137.933 23.4502 137.708 23.0077L135.961 19.4265H126.662L124.917 23.0077C124.692 23.4502 124.518 23.77 124.396 23.9688C124.273 24.1677 124.072 24.3723 123.792 24.5829C123.512 24.7934 123.154 24.8987 122.718 24.8987C122.282 24.8987 121.682 24.7116 120.922 24.3353C119.623 23.7173 118.976 23.0097 118.976 22.2143C118.976 21.838 119.165 21.2746 119.546 20.5241L128.61 1.99049C128.857 1.48168 129.232 1.07424 129.735 0.764272C130.239 0.454306 130.769 0.300298 131.33 0.300298C132.538 0.298348 133.432 0.873442 134.015 2.02168ZM131.295 9.97942L129.08 14.5217H133.545L131.295 9.97942Z" fill="#2C365E"/>
<path d="M163.02 11.5721C164.341 13.1199 165 14.855 165 16.7771C164.955 18.9878 164.189 20.8379 162.7 22.3312C161.212 23.8225 159.404 24.5692 157.278 24.5692H148.449C146.882 24.5692 145.964 24.15 145.695 23.3098C145.561 22.9336 145.494 22.3604 145.494 21.5865V3.1835C145.494 2.65324 145.512 2.26725 145.545 2.02356C145.579 1.77988 145.686 1.49331 145.865 1.1619C146.179 0.565359 147.052 0.26709 148.485 0.26709H156.945C159.003 0.26709 160.727 0.974747 162.114 2.38811C163.569 3.82487 164.295 5.55015 164.295 7.56006C164.295 9.01826 163.869 10.3556 163.02 11.5721ZM159.059 16.4457C159.059 15.9155 158.997 15.4963 158.873 15.1864C158.751 14.8764 158.543 14.6561 158.251 14.5236C157.803 14.3462 157.178 14.2584 156.372 14.2584C155.567 14.2584 154.963 14.1044 154.56 13.7945C154.157 13.4845 153.956 12.849 153.956 11.8879C153.956 10.9268 154.163 10.2913 154.578 9.9813C154.992 9.67133 155.679 9.51732 156.643 9.51732C157.537 9.51732 158.074 9.28534 158.253 8.82136C158.32 8.57768 158.354 8.17999 158.354 7.62829C158.354 7.07659 158.168 6.68864 157.799 6.46835C157.43 6.24806 156.876 6.13694 156.137 6.13694H151.437V18.7032H156.943C158.354 18.6993 159.059 17.9488 159.059 16.4457Z" fill="#2C365E"/>
<path d="M34.9157 16.5334C36.9499 16.5334 38.5989 14.6874 38.5989 12.4102C38.5989 10.1331 36.9499 8.28711 34.9157 8.28711C32.8815 8.28711 31.2324 10.1331 31.2324 12.4102C31.2324 14.6874 32.8815 16.5334 34.9157 16.5334Z" fill="#A66CFF"/>
</g>
<defs>
<clipPath id="clip0_481_16">
<rect width="165" height="25" fill="white"/>
</clipPath>
</defs>
</svg>
