<svg width="292" height="292" viewBox="0 0 292 292" fill="none" xmlns="http://www.w3.org/2000/svg">
<circle cx="146" cy="146" r="146" fill="#2C365E"/>
<g clip-path="url(#clip0_484_4671)">
<path d="M255 74H245.92V292H255V74Z" fill="#6951AF"/>
<path d="M255 282.917H142.296V292H255V282.917Z" fill="#6951AF"/>
<path d="M168.468 149.338C180.268 149.338 189.834 139.77 189.834 127.966C189.834 116.162 180.268 106.593 168.468 106.593C156.668 106.593 147.103 116.162 147.103 127.966C147.103 139.77 156.668 149.338 168.468 149.338Z" fill="#6951AF"/>
<path d="M146.568 128.441C145.682 128.441 144.966 127.725 144.966 126.838V82.5492C144.966 81.6623 145.682 80.9463 146.568 80.9463C147.455 80.9463 148.171 81.6623 148.171 82.5492V126.838C148.171 127.725 147.455 128.441 146.568 128.441Z" fill="#A66CFF"/>
<path d="M190.368 128.441C189.481 128.441 188.766 127.725 188.766 126.838V83.2651C188.766 82.3781 189.481 81.6621 190.368 81.6621C191.255 81.6621 191.97 82.3781 191.97 83.2651V126.838C191.97 127.725 191.255 128.441 190.368 128.441Z" fill="#A66CFF"/>
<path d="M170.071 149.338H166.866V201.055H170.071V149.338Z" fill="#A66CFF"/>
<path d="M204.79 207.579H133.749V246.584H204.79V207.579Z" fill="#A66CFF"/>
<path d="M177.015 207.578C177.015 203.154 173.425 199.563 169.002 199.563C164.58 199.563 160.99 203.154 160.99 207.578H177.015Z" fill="#6951AF"/>
<path d="M202.119 220.937C202.274 222.828 202.381 224.714 202.483 226.606C202.573 228.497 202.659 230.383 202.712 232.275C202.776 234.166 202.824 236.052 202.851 237.944C202.894 239.835 202.905 241.721 202.915 243.613L202.921 244.398H202.125C199.855 244.404 197.584 244.355 195.314 244.323C193.044 244.291 190.774 244.217 188.504 244.147C186.234 244.067 183.964 243.971 181.694 243.848C179.424 243.714 177.153 243.581 174.889 243.367C177.159 243.196 179.434 243.1 181.704 243.009C183.974 242.924 186.245 242.87 188.515 242.827C190.785 242.801 193.055 242.763 195.325 242.774C197.595 242.785 199.865 242.774 202.135 242.822L201.34 243.607C201.35 241.716 201.356 239.83 201.404 237.938C201.43 236.047 201.478 234.161 201.542 232.269C201.591 230.378 201.681 228.492 201.772 226.6C201.858 224.714 201.964 222.828 202.119 220.937Z" fill="#2C365E"/>
<path d="M255 74H142.296V83.0833H255V74Z" fill="#6951AF"/>
<path d="M152.978 210.25C150.292 210.474 147.605 210.624 144.913 210.731C142.226 210.843 139.539 210.929 136.847 210.971L137.568 210.25C137.632 212.927 137.627 215.604 137.648 218.286C137.627 220.963 137.632 223.64 137.568 226.322C137.525 228.999 137.44 231.676 137.328 234.358C137.221 237.035 137.071 239.712 136.847 242.394C136.623 239.717 136.473 237.041 136.366 234.358C136.254 231.681 136.169 229.004 136.126 226.322C136.062 223.645 136.067 220.968 136.046 218.286C136.067 215.609 136.062 212.932 136.126 210.25L136.142 209.518L136.842 209.529C139.529 209.571 142.215 209.657 144.907 209.769C147.605 209.876 150.292 210.026 152.978 210.25Z" fill="white"/>
<path d="M182.623 128.233C182.65 132.016 181.127 135.777 178.478 138.513C177.153 139.881 175.578 141.014 173.815 141.794C172.058 142.574 170.14 143.007 168.201 143.06C164.318 143.172 160.371 141.676 157.518 138.925C156.103 137.546 154.944 135.884 154.169 134.052C153.395 132.219 152.994 130.226 152.983 128.238C152.994 126.245 153.4 124.258 154.169 122.42C154.944 120.582 156.103 118.925 157.518 117.547C160.371 114.79 164.323 113.299 168.207 113.406C170.145 113.459 172.068 113.892 173.82 114.672C175.578 115.452 177.159 116.585 178.483 117.953C181.127 120.688 182.65 124.45 182.623 128.233ZM182.623 128.233C182.607 126.342 182.228 124.461 181.496 122.724C180.764 120.988 179.659 119.417 178.318 118.113C175.61 115.506 171.871 114.1 168.201 114.213C166.364 114.266 164.553 114.677 162.892 115.42C161.231 116.157 159.74 117.237 158.49 118.524C155.991 121.116 154.559 124.664 154.58 128.238C154.559 131.813 155.991 135.361 158.49 137.952C159.74 139.245 161.231 140.324 162.892 141.062C164.548 141.805 166.364 142.216 168.201 142.269C171.876 142.376 175.615 140.976 178.318 138.364C179.659 137.054 180.759 135.489 181.496 133.752C182.228 132.005 182.612 130.124 182.623 128.233Z" fill="white"/>
<path d="M146.568 76.2282L173.233 75.9557L186.565 75.8329L199.897 75.758L226.562 75.6084C235.45 75.5443 244.338 75.5336 253.226 75.5229H253.931V76.2336L253.867 128.639L253.611 181.045C253.558 198.511 253.349 215.983 253.216 233.45L253.098 246.551L252.938 259.653L252.585 285.856L252.393 259.653L252.313 246.551L252.276 233.45C252.244 215.983 252.147 198.511 252.195 181.045L252.254 128.639L252.505 76.2336L253.21 76.9442C244.322 76.9282 235.434 76.9175 226.546 76.8587L199.881 76.7091L186.549 76.6343L173.217 76.5114L146.568 76.2282Z" fill="#2C365E"/>
<path d="M145.384 84.884C145.715 84.5474 146.1 84.3604 146.5 84.2161C146.901 84.0825 147.317 83.9917 147.787 84.0505C147.456 84.3924 147.072 84.5741 146.671 84.7183C146.27 84.8466 145.854 84.9428 145.384 84.884Z" fill="white"/>
<path d="M145.384 85.8459C145.715 85.5093 146.1 85.3223 146.5 85.178C146.901 85.0444 147.317 84.9536 147.787 85.0124C147.456 85.3543 147.072 85.536 146.671 85.6803C146.27 85.8138 145.854 85.9047 145.384 85.8459Z" fill="white"/>
<path d="M145.384 86.8127C145.715 86.4761 146.1 86.2891 146.5 86.1448C146.901 86.0112 147.317 85.9204 147.787 85.9792C147.456 86.3211 147.072 86.5028 146.671 86.6471C146.27 86.7753 145.854 86.8715 145.384 86.8127Z" fill="white"/>
<path d="M145.378 87.7746C145.709 87.438 146.094 87.251 146.494 87.1067C146.895 86.9731 147.312 86.8823 147.782 86.9411C147.45 87.283 147.066 87.4647 146.665 87.609C146.265 87.7425 145.848 87.8334 145.378 87.7746Z" fill="white"/>
<path d="M145.378 88.7419C145.709 88.4053 146.094 88.2183 146.494 88.074C146.895 87.9404 147.312 87.8496 147.782 87.9084C147.45 88.2503 147.066 88.432 146.665 88.5763C146.265 88.7045 145.848 88.8007 145.378 88.7419Z" fill="white"/>
<path d="M145.378 89.7033C145.709 89.3667 146.094 89.1797 146.494 89.0354C146.895 88.9018 147.312 88.811 147.782 88.8698C147.45 89.2118 147.066 89.3934 146.665 89.5377C146.259 89.6713 145.843 89.7621 145.378 89.7033Z" fill="white"/>
<path d="M145.373 90.6706C145.704 90.334 146.089 90.147 146.489 90.0027C146.89 89.8691 147.307 89.7783 147.777 89.8371C147.446 90.179 147.061 90.3607 146.66 90.505C146.26 90.6332 145.843 90.7294 145.373 90.6706Z" fill="white"/>
<path d="M145.373 91.6325C145.704 91.2959 146.089 91.1089 146.489 90.9646C146.89 90.831 147.307 90.7402 147.777 90.799C147.446 91.1409 147.061 91.3226 146.66 91.4669C146.26 91.6005 145.843 91.6913 145.373 91.6325Z" fill="white"/>
<path d="M145.367 92.5993C145.698 92.2627 146.083 92.0757 146.484 91.9314C146.884 91.7978 147.301 91.707 147.771 91.7658C147.44 92.1077 147.055 92.2894 146.654 92.4337C146.254 92.5619 145.837 92.6581 145.367 92.5993Z" fill="white"/>
<path d="M145.367 93.5612C145.698 93.2246 146.083 93.0376 146.484 92.8933C146.884 92.7598 147.301 92.6689 147.771 92.7277C147.44 93.0697 147.055 93.2513 146.654 93.3956C146.254 93.5292 145.837 93.6253 145.367 93.5612Z" fill="white"/>
<path d="M145.367 94.5285C145.698 94.1919 146.083 94.0049 146.484 93.8606C146.884 93.727 147.301 93.6362 147.771 93.695C147.44 94.0369 147.055 94.2186 146.654 94.3629C146.254 94.4911 145.837 94.5873 145.367 94.5285Z" fill="white"/>
<path d="M145.362 95.4899C145.693 95.1533 146.078 94.9663 146.479 94.822C146.879 94.6885 147.296 94.5976 147.766 94.6564C147.435 94.9984 147.05 95.18 146.65 95.3243C146.249 95.4579 145.832 95.5541 145.362 95.4899Z" fill="white"/>
<path d="M145.362 96.4572C145.693 96.1206 146.078 95.9336 146.479 95.7893C146.879 95.6558 147.296 95.5649 147.766 95.6237C147.435 95.9657 147.05 96.1473 146.65 96.2916C146.249 96.4198 145.832 96.516 145.362 96.4572Z" fill="white"/>
<path d="M145.362 97.4191C145.693 97.0825 146.078 96.8955 146.479 96.7512C146.879 96.6177 147.296 96.5268 147.766 96.5856C147.435 96.9276 147.05 97.1092 146.65 97.2535C146.244 97.3871 145.832 97.4833 145.362 97.4191Z" fill="white"/>
<path d="M145.356 98.3859C145.688 98.0493 146.072 97.8623 146.473 97.718C146.873 97.5845 147.29 97.4936 147.76 97.5524C147.429 97.8944 147.044 98.076 146.644 98.2203C146.243 98.3485 145.826 98.4447 145.356 98.3859Z" fill="white"/>
<path d="M145.356 99.3478C145.688 99.0112 146.072 98.8242 146.473 98.68C146.873 98.5464 147.29 98.4555 147.76 98.5143C147.429 98.8563 147.044 99.0379 146.644 99.1822C146.243 99.3158 145.826 99.412 145.356 99.3478Z" fill="white"/>
<path d="M145.356 100.315C145.688 99.9785 146.072 99.7915 146.473 99.6472C146.873 99.5137 147.29 99.4228 147.76 99.4816C147.429 99.8236 147.044 100.005 146.644 100.149C146.238 100.278 145.821 100.374 145.356 100.315Z" fill="white"/>
<path d="M145.352 101.282C145.683 100.945 146.067 100.758 146.468 100.614C146.869 100.48 147.285 100.39 147.755 100.448C147.424 100.79 147.039 100.972 146.639 101.116C146.238 101.245 145.822 101.341 145.352 101.282Z" fill="white"/>
<path d="M145.352 102.244C145.683 101.907 146.067 101.72 146.468 101.576C146.869 101.442 147.285 101.352 147.755 101.41C147.424 101.752 147.039 101.934 146.639 102.078C146.238 102.212 145.822 102.303 145.352 102.244Z" fill="white"/>
<path d="M145.346 103.211C145.677 102.875 146.061 102.688 146.462 102.543C146.863 102.41 147.279 102.319 147.749 102.378C147.418 102.72 147.034 102.901 146.633 103.045C146.232 103.174 145.816 103.27 145.346 103.211Z" fill="white"/>
<path d="M145.346 104.173C145.677 103.836 146.061 103.649 146.462 103.505C146.863 103.371 147.279 103.28 147.749 103.339C147.418 103.681 147.034 103.863 146.633 104.007C146.232 104.14 145.816 104.231 145.346 104.173Z" fill="white"/>
<path d="M145.346 105.14C145.677 104.803 146.061 104.616 146.462 104.472C146.863 104.338 147.279 104.248 147.749 104.306C147.418 104.648 147.034 104.83 146.633 104.974C146.232 105.102 145.816 105.199 145.346 105.14Z" fill="white"/>
<path d="M145.341 106.102C145.672 105.765 146.057 105.578 146.457 105.434C146.858 105.3 147.274 105.209 147.744 105.268C147.413 105.61 147.029 105.792 146.628 105.936C146.228 106.07 145.811 106.161 145.341 106.102Z" fill="white"/>
<path d="M145.341 107.069C145.672 106.732 146.057 106.545 146.457 106.401C146.858 106.267 147.274 106.176 147.744 106.235C147.413 106.577 147.029 106.759 146.628 106.903C146.228 107.031 145.811 107.127 145.341 107.069Z" fill="white"/>
<path d="M145.341 108.03C145.672 107.694 146.057 107.507 146.457 107.363C146.858 107.229 147.274 107.138 147.744 107.197C147.413 107.539 147.029 107.721 146.628 107.865C146.222 107.998 145.811 108.089 145.341 108.03Z" fill="white"/>
<path d="M145.335 108.998C145.666 108.661 146.051 108.474 146.451 108.33C146.852 108.196 147.269 108.105 147.739 108.164C147.407 108.506 147.023 108.688 146.622 108.832C146.222 108.96 145.805 109.057 145.335 108.998Z" fill="white"/>
<path d="M145.335 109.959C145.666 109.623 146.051 109.436 146.451 109.291C146.852 109.158 147.269 109.067 147.739 109.126C147.407 109.468 147.023 109.649 146.622 109.794C146.222 109.927 145.805 110.018 145.335 109.959Z" fill="white"/>
<path d="M145.33 110.926C145.661 110.59 146.046 110.403 146.446 110.259C146.847 110.125 147.264 110.034 147.734 110.093C147.403 110.435 147.018 110.617 146.617 110.761C146.217 110.889 145.8 110.985 145.33 110.926Z" fill="white"/>
<path d="M145.33 111.888C145.661 111.552 146.046 111.365 146.446 111.22C146.847 111.087 147.264 110.996 147.734 111.055C147.403 111.397 147.018 111.578 146.617 111.723C146.217 111.856 145.8 111.947 145.33 111.888Z" fill="white"/>
<path d="M145.33 112.855C145.661 112.519 146.046 112.332 146.446 112.187C146.847 112.054 147.264 111.963 147.734 112.022C147.403 112.364 147.018 112.545 146.617 112.69C146.217 112.818 145.8 112.914 145.33 112.855Z" fill="white"/>
<path d="M145.324 113.817C145.655 113.48 146.04 113.293 146.441 113.149C146.841 113.016 147.258 112.925 147.728 112.984C147.397 113.326 147.012 113.507 146.612 113.651C146.211 113.785 145.794 113.876 145.324 113.817Z" fill="white"/>
<path d="M145.324 114.784C145.655 114.448 146.04 114.261 146.441 114.116C146.841 113.983 147.258 113.892 147.728 113.951C147.397 114.293 147.012 114.474 146.612 114.619C146.211 114.747 145.794 114.843 145.324 114.784Z" fill="white"/>
<path d="M145.324 115.746C145.655 115.409 146.04 115.222 146.441 115.078C146.841 114.944 147.258 114.853 147.728 114.912C147.397 115.254 147.012 115.436 146.612 115.58C146.206 115.714 145.794 115.805 145.324 115.746Z" fill="white"/>
<path d="M145.319 116.713C145.651 116.376 146.035 116.189 146.436 116.045C146.836 115.912 147.253 115.821 147.723 115.88C147.392 116.222 147.007 116.403 146.607 116.547C146.206 116.676 145.789 116.772 145.319 116.713Z" fill="white"/>
<path d="M145.319 117.675C145.651 117.338 146.035 117.151 146.436 117.007C146.836 116.874 147.253 116.783 147.723 116.841C147.392 117.183 147.007 117.365 146.607 117.509C146.206 117.643 145.789 117.739 145.319 117.675Z" fill="white"/>
<path d="M145.319 118.642C145.651 118.305 146.035 118.118 146.436 117.974C146.836 117.84 147.253 117.749 147.723 117.808C147.392 118.15 147.007 118.332 146.607 118.476C146.201 118.604 145.784 118.701 145.319 118.642Z" fill="white"/>
<path d="M145.313 119.604C145.645 119.267 146.029 119.08 146.43 118.936C146.83 118.802 147.247 118.711 147.717 118.77C147.386 119.112 147.001 119.294 146.601 119.438C146.2 119.572 145.784 119.668 145.313 119.604Z" fill="white"/>
<path d="M145.313 120.571C145.645 120.234 146.029 120.047 146.43 119.903C146.83 119.77 147.247 119.679 147.717 119.737C147.386 120.079 147.001 120.261 146.601 120.405C146.2 120.534 145.784 120.63 145.313 120.571Z" fill="white"/>
<path d="M145.309 121.532C145.64 121.196 146.024 121.009 146.425 120.865C146.826 120.731 147.242 120.64 147.712 120.699C147.381 121.041 146.996 121.223 146.596 121.367C146.195 121.5 145.779 121.597 145.309 121.532Z" fill="white"/>
<path d="M145.309 122.5C145.64 122.163 146.024 121.976 146.425 121.832C146.826 121.698 147.242 121.607 147.712 121.666C147.381 122.008 146.996 122.19 146.596 122.334C146.195 122.462 145.779 122.558 145.309 122.5Z" fill="white"/>
<path d="M145.309 123.462C145.64 123.125 146.024 122.938 146.425 122.794C146.826 122.66 147.242 122.569 147.712 122.628C147.381 122.97 146.996 123.152 146.596 123.296C146.195 123.43 145.779 123.526 145.309 123.462Z" fill="white"/>
<path d="M145.303 124.428C145.634 124.092 146.018 123.905 146.419 123.761C146.82 123.627 147.236 123.536 147.706 123.595C147.375 123.937 146.991 124.119 146.59 124.263C146.189 124.391 145.773 124.487 145.303 124.428Z" fill="white"/>
<path d="M145.303 125.396C145.634 125.059 146.018 124.872 146.419 124.728C146.82 124.594 147.236 124.503 147.706 124.562C147.375 124.904 146.991 125.086 146.59 125.23C146.189 125.358 145.773 125.454 145.303 125.396Z" fill="white"/>
<path d="M145.303 126.358C145.634 126.021 146.018 125.834 146.419 125.69C146.82 125.556 147.236 125.465 147.706 125.524C147.375 125.866 146.991 126.048 146.59 126.192C146.184 126.326 145.773 126.416 145.303 126.358Z" fill="white"/>
<path d="M145.298 127.324C145.629 126.988 146.014 126.801 146.414 126.657C146.815 126.523 147.231 126.432 147.702 126.491C147.37 126.833 146.986 127.015 146.585 127.159C146.185 127.287 145.768 127.383 145.298 127.324Z" fill="white"/>
<path d="M189.349 84.9162C189.68 84.5796 190.064 84.3926 190.465 84.2483C190.866 84.1147 191.282 84.0239 191.752 84.0827C191.421 84.4246 191.037 84.6063 190.636 84.7506C190.235 84.8788 189.819 84.975 189.349 84.9162Z" fill="white"/>
<path d="M189.343 85.8781C189.674 85.5415 190.059 85.3545 190.459 85.2102C190.86 85.0767 191.276 84.9858 191.746 85.0446C191.415 85.3866 191.031 85.5682 190.63 85.7125C190.229 85.8461 189.813 85.9422 189.343 85.8781Z" fill="white"/>
<path d="M189.343 86.8449C189.674 86.5083 190.059 86.3213 190.459 86.177C190.86 86.0435 191.276 85.9526 191.746 86.0114C191.415 86.3534 191.031 86.535 190.63 86.6793C190.229 86.8075 189.813 86.9037 189.343 86.8449Z" fill="white"/>
<path d="M189.343 87.8068C189.674 87.4702 190.059 87.2832 190.459 87.1389C190.86 87.0054 191.276 86.9145 191.746 86.9733C191.415 87.3153 191.031 87.4969 190.63 87.6412C190.224 87.7748 189.813 87.871 189.343 87.8068Z" fill="white"/>
<path d="M189.338 88.7741C189.669 88.4375 190.054 88.2505 190.454 88.1062C190.855 87.9726 191.271 87.8818 191.742 87.9406C191.41 88.2826 191.026 88.4642 190.625 88.6085C190.225 88.7367 189.808 88.8329 189.338 88.7741Z" fill="white"/>
<path d="M189.338 89.7409C189.669 89.4043 190.054 89.2173 190.454 89.073C190.855 88.9394 191.271 88.8486 191.742 88.9074C191.41 89.2493 191.026 89.431 190.625 89.5753C190.225 89.7035 189.808 89.7997 189.338 89.7409Z" fill="white"/>
<path d="M189.338 90.7028C189.669 90.3662 190.054 90.1792 190.454 90.0349C190.855 89.9014 191.271 89.8105 191.742 89.8693C191.41 90.2113 191.026 90.3929 190.625 90.5372C190.219 90.6708 189.803 90.7616 189.338 90.7028Z" fill="white"/>
<path d="M189.332 91.6701C189.663 91.3335 190.048 91.1465 190.448 91.0022C190.849 90.8686 191.266 90.7778 191.736 90.8366C191.405 91.1785 191.02 91.3602 190.619 91.5045C190.219 91.6327 189.802 91.7289 189.332 91.6701Z" fill="white"/>
<path d="M189.332 92.6315C189.663 92.2949 190.048 92.1079 190.448 91.9636C190.849 91.8301 191.266 91.7392 191.736 91.798C191.405 92.14 191.02 92.3216 190.619 92.4659C190.219 92.5995 189.802 92.6903 189.332 92.6315Z" fill="white"/>
<path d="M189.327 93.5988C189.658 93.2622 190.043 93.0752 190.444 92.9309C190.844 92.7974 191.261 92.7065 191.731 92.7653C191.4 93.1073 191.015 93.2889 190.614 93.4332C190.214 93.5614 189.797 93.6576 189.327 93.5988Z" fill="white"/>
<path d="M189.327 94.5607C189.658 94.2241 190.043 94.0371 190.444 93.8928C190.844 93.7593 191.261 93.6684 191.731 93.7272C191.4 94.0692 191.015 94.2508 190.614 94.3951C190.214 94.5287 189.797 94.6195 189.327 94.5607Z" fill="white"/>
<path d="M189.327 95.5275C189.658 95.1909 190.043 95.0039 190.444 94.8596C190.844 94.7261 191.261 94.6352 191.731 94.694C191.4 95.036 191.015 95.2176 190.614 95.3619C190.214 95.4901 189.797 95.5863 189.327 95.5275Z" fill="white"/>
<path d="M189.321 96.4895C189.652 96.1528 190.037 95.9658 190.438 95.8216C190.838 95.688 191.255 95.5971 191.725 95.6559C191.394 95.9979 191.009 96.1795 190.609 96.3238C190.208 96.4574 189.791 96.5482 189.321 96.4895Z" fill="white"/>
<path d="M189.321 97.4567C189.652 97.1201 190.037 96.9331 190.438 96.7888C190.838 96.6553 191.255 96.5644 191.725 96.6232C191.394 96.9652 191.009 97.1468 190.609 97.2911C190.208 97.4193 189.791 97.5155 189.321 97.4567Z" fill="white"/>
<path d="M189.321 98.4182C189.652 98.0815 190.037 97.8945 190.438 97.7503C190.838 97.6167 191.255 97.5259 191.725 97.5846C191.394 97.9266 191.009 98.1083 190.609 98.2525C190.203 98.3861 189.791 98.4769 189.321 98.4182Z" fill="white"/>
<path d="M189.316 99.3854C189.648 99.0488 190.032 98.8618 190.433 98.7176C190.833 98.584 191.25 98.4931 191.72 98.5519C191.389 98.8939 191.004 99.0755 190.604 99.2198C190.203 99.348 189.786 99.4442 189.316 99.3854Z" fill="white"/>
<path d="M189.316 100.347C189.648 100.011 190.032 99.8237 190.433 99.6795C190.833 99.5459 191.25 99.4551 191.72 99.5138C191.389 99.8558 191.004 100.037 190.604 100.182C190.203 100.315 189.786 100.406 189.316 100.347Z" fill="white"/>
<path d="M189.311 101.314C189.642 100.978 190.026 100.791 190.427 100.646C190.828 100.513 191.244 100.422 191.714 100.481C191.383 100.823 190.998 101.004 190.598 101.149C190.197 101.277 189.781 101.373 189.311 101.314Z" fill="white"/>
<path d="M189.311 102.276C189.642 101.939 190.026 101.752 190.427 101.608C190.828 101.475 191.244 101.384 191.714 101.443C191.383 101.785 190.998 101.966 190.598 102.11C190.197 102.244 189.781 102.335 189.311 102.276Z" fill="white"/>
<path d="M189.311 103.243C189.642 102.907 190.026 102.72 190.427 102.575C190.828 102.442 191.244 102.351 191.714 102.41C191.383 102.752 190.998 102.933 190.598 103.078C190.197 103.206 189.781 103.302 189.311 103.243Z" fill="white"/>
<path d="M189.306 104.205C189.637 103.868 190.021 103.681 190.422 103.537C190.823 103.403 191.239 103.312 191.709 103.371C191.378 103.713 190.994 103.895 190.593 104.039C190.192 104.173 189.776 104.269 189.306 104.205Z" fill="white"/>
<path d="M189.306 105.172C189.637 104.835 190.021 104.648 190.422 104.504C190.823 104.371 191.239 104.28 191.709 104.339C191.378 104.681 190.994 104.862 190.593 105.006C190.192 105.135 189.776 105.231 189.306 105.172Z" fill="white"/>
<path d="M189.306 106.134C189.637 105.797 190.021 105.61 190.422 105.466C190.823 105.333 191.239 105.242 191.709 105.3C191.378 105.642 190.994 105.824 190.593 105.968C190.187 106.102 189.776 106.198 189.306 106.134Z" fill="white"/>
<path d="M189.3 107.101C189.631 106.764 190.016 106.577 190.416 106.433C190.817 106.299 191.233 106.208 191.703 106.267C191.372 106.609 190.988 106.791 190.587 106.935C190.186 107.063 189.77 107.16 189.3 107.101Z" fill="white"/>
<path d="M189.3 108.063C189.631 107.726 190.016 107.539 190.416 107.395C190.817 107.261 191.233 107.17 191.703 107.229C191.372 107.571 190.988 107.753 190.587 107.897C190.186 108.031 189.77 108.127 189.3 108.063Z" fill="white"/>
<path d="M189.3 109.03C189.631 108.693 190.016 108.506 190.416 108.362C190.817 108.229 191.233 108.138 191.703 108.196C191.372 108.538 190.988 108.72 190.587 108.864C190.181 108.993 189.765 109.089 189.3 109.03Z" fill="white"/>
<path d="M189.295 109.991C189.626 109.655 190.011 109.468 190.411 109.324C190.812 109.19 191.229 109.099 191.699 109.158C191.367 109.5 190.983 109.682 190.582 109.826C190.182 109.959 189.765 110.056 189.295 109.991Z" fill="white"/>
<path d="M189.295 110.959C189.626 110.622 190.011 110.435 190.411 110.291C190.812 110.157 191.229 110.066 191.699 110.125C191.367 110.467 190.983 110.649 190.582 110.793C190.182 110.921 189.765 111.017 189.295 110.959Z" fill="white"/>
<path d="M189.289 111.921C189.62 111.584 190.005 111.397 190.405 111.253C190.806 111.119 191.223 111.028 191.693 111.087C191.362 111.429 190.977 111.611 190.576 111.755C190.176 111.889 189.759 111.985 189.289 111.921Z" fill="white"/>
<path d="M189.289 112.887C189.62 112.551 190.005 112.364 190.405 112.22C190.806 112.086 191.223 111.995 191.693 112.054C191.362 112.396 190.977 112.577 190.576 112.722C190.176 112.85 189.759 112.946 189.289 112.887Z" fill="white"/>
<path d="M189.289 113.855C189.62 113.518 190.005 113.331 190.405 113.187C190.806 113.053 191.223 112.962 191.693 113.021C191.362 113.363 190.977 113.545 190.576 113.689C190.176 113.817 189.759 113.913 189.289 113.855Z" fill="white"/>
<path d="M189.284 114.817C189.615 114.48 190 114.293 190.401 114.149C190.801 114.015 191.218 113.924 191.688 113.983C191.357 114.325 190.972 114.507 190.571 114.651C190.171 114.785 189.754 114.875 189.284 114.817Z" fill="white"/>
<path d="M189.284 115.783C189.615 115.447 190 115.26 190.401 115.116C190.801 114.982 191.218 114.891 191.688 114.95C191.357 115.292 190.972 115.473 190.571 115.618C190.171 115.746 189.754 115.842 189.284 115.783Z" fill="white"/>
<path d="M189.284 116.745C189.615 116.409 190 116.222 190.401 116.077C190.801 115.944 191.218 115.853 191.688 115.912C191.357 116.254 190.972 116.435 190.571 116.58C190.166 116.713 189.754 116.804 189.284 116.745Z" fill="white"/>
<path d="M189.278 117.713C189.609 117.376 189.994 117.189 190.395 117.045C190.795 116.911 191.212 116.82 191.682 116.879C191.351 117.221 190.966 117.403 190.566 117.547C190.165 117.675 189.748 117.771 189.278 117.713Z" fill="white"/>
<path d="M189.278 118.674C189.609 118.337 189.994 118.15 190.395 118.006C190.795 117.873 191.212 117.782 191.682 117.84C191.351 118.182 190.966 118.364 190.566 118.508C190.165 118.642 189.748 118.733 189.278 118.674Z" fill="white"/>
<path d="M189.273 119.641C189.605 119.305 189.989 119.118 190.39 118.973C190.79 118.84 191.207 118.749 191.677 118.808C191.346 119.15 190.961 119.331 190.561 119.476C190.16 119.604 189.743 119.7 189.273 119.641Z" fill="white"/>
<path d="M189.273 120.603C189.605 120.267 189.989 120.08 190.39 119.935C190.79 119.802 191.207 119.711 191.677 119.77C191.346 120.112 190.961 120.293 190.561 120.438C190.16 120.571 189.743 120.662 189.273 120.603Z" fill="white"/>
<path d="M189.273 121.57C189.605 121.233 189.989 121.046 190.39 120.902C190.79 120.769 191.207 120.678 191.677 120.736C191.346 121.078 190.961 121.26 190.561 121.404C190.16 121.533 189.743 121.629 189.273 121.57Z" fill="white"/>
<path d="M189.268 122.532C189.599 122.195 189.983 122.008 190.384 121.864C190.785 121.73 191.201 121.64 191.671 121.698C191.34 122.04 190.955 122.222 190.555 122.366C190.154 122.5 189.738 122.591 189.268 122.532Z" fill="white"/>
<path d="M189.268 123.499C189.599 123.163 189.983 122.976 190.384 122.831C190.785 122.698 191.201 122.607 191.671 122.666C191.34 123.008 190.955 123.189 190.555 123.334C190.154 123.462 189.738 123.558 189.268 123.499Z" fill="white"/>
<path d="M189.268 124.461C189.599 124.124 189.983 123.937 190.384 123.793C190.785 123.659 191.201 123.568 191.671 123.627C191.34 123.969 190.955 124.151 190.555 124.295C190.154 124.429 189.738 124.519 189.268 124.461Z" fill="white"/>
<path d="M189.263 125.428C189.594 125.091 189.978 124.904 190.379 124.76C190.78 124.626 191.196 124.536 191.666 124.594C191.335 124.936 190.951 125.118 190.55 125.262C190.149 125.391 189.733 125.487 189.263 125.428Z" fill="white"/>
<path d="M189.263 126.39C189.594 126.053 189.978 125.866 190.379 125.722C190.78 125.588 191.196 125.498 191.666 125.556C191.335 125.898 190.951 126.08 190.55 126.224C190.149 126.358 189.733 126.449 189.263 126.39Z" fill="white"/>
<path d="M189.263 127.357C189.594 127.02 189.978 126.833 190.379 126.689C190.78 126.555 191.196 126.464 191.666 126.523C191.335 126.865 190.951 127.047 190.55 127.191C190.144 127.319 189.727 127.415 189.263 127.357Z" fill="white"/>
<path d="M167.449 150.62C167.775 150.268 168.154 150.065 168.555 149.899C168.961 149.75 169.377 149.637 169.853 149.675C169.527 150.027 169.148 150.23 168.747 150.396C168.341 150.546 167.925 150.658 167.449 150.62Z" fill="white"/>
<path d="M167.443 151.636C167.769 151.283 168.148 151.08 168.549 150.914C168.955 150.765 169.372 150.652 169.847 150.69C169.521 151.043 169.142 151.246 168.741 151.411C168.341 151.561 167.924 151.678 167.443 151.636Z" fill="white"/>
<path d="M167.443 152.656C167.769 152.303 168.148 152.1 168.549 151.935C168.955 151.785 169.372 151.673 169.847 151.71C169.521 152.063 169.142 152.266 168.741 152.432C168.341 152.581 167.919 152.694 167.443 152.656Z" fill="white"/>
<path d="M167.443 153.671C167.769 153.319 168.148 153.116 168.549 152.95C168.955 152.8 169.372 152.688 169.847 152.726C169.521 153.078 169.142 153.281 168.741 153.447C168.335 153.602 167.919 153.714 167.443 153.671Z" fill="white"/>
<path d="M167.438 154.692C167.764 154.339 168.144 154.136 168.544 153.97C168.95 153.821 169.367 153.709 169.842 153.746C169.516 154.099 169.137 154.302 168.736 154.467C168.336 154.617 167.919 154.729 167.438 154.692Z" fill="white"/>
<path d="M167.438 155.712C167.764 155.36 168.144 155.157 168.544 154.991C168.95 154.841 169.367 154.729 169.842 154.767C169.516 155.119 169.137 155.322 168.736 155.488C168.336 155.637 167.914 155.75 167.438 155.712Z" fill="white"/>
<path d="M167.438 156.728C167.764 156.375 168.144 156.172 168.544 156.007C168.95 155.857 169.367 155.745 169.842 155.782C169.516 156.135 169.137 156.338 168.736 156.503C168.331 156.658 167.914 156.771 167.438 156.728Z" fill="white"/>
<path d="M167.433 157.748C167.758 157.396 168.138 157.193 168.538 157.027C168.944 156.877 169.361 156.765 169.836 156.803C169.51 157.155 169.131 157.358 168.731 157.524C168.33 157.674 167.913 157.786 167.433 157.748Z" fill="white"/>
<path d="M167.433 158.769C167.758 158.416 168.138 158.213 168.538 158.048C168.944 157.898 169.361 157.786 169.836 157.823C169.51 158.176 169.131 158.379 168.731 158.544C168.33 158.694 167.908 158.806 167.433 158.769Z" fill="white"/>
<path d="M167.433 159.784C167.758 159.431 168.138 159.228 168.538 159.063C168.944 158.913 169.361 158.801 169.836 158.838C169.51 159.191 169.131 159.394 168.731 159.56C168.325 159.715 167.908 159.827 167.433 159.784Z" fill="white"/>
<path d="M167.428 160.805C167.754 160.452 168.133 160.249 168.533 160.083C168.939 159.934 169.356 159.821 169.831 159.859C169.506 160.211 169.126 160.414 168.726 160.58C168.325 160.73 167.908 160.842 167.428 160.805Z" fill="white"/>
<path d="M167.428 161.825C167.754 161.472 168.133 161.269 168.533 161.104C168.939 160.954 169.356 160.842 169.831 160.879C169.506 161.232 169.126 161.435 168.726 161.601C168.325 161.75 167.903 161.862 167.428 161.825Z" fill="white"/>
<path d="M167.428 162.84C167.754 162.488 168.133 162.285 168.533 162.119C168.939 161.969 169.356 161.857 169.831 161.894C169.506 162.247 169.126 162.45 168.726 162.616C168.32 162.765 167.903 162.883 167.428 162.84Z" fill="white"/>
<path d="M167.422 163.861C167.748 163.508 168.127 163.305 168.528 163.139C168.934 162.99 169.35 162.878 169.826 162.915C169.5 163.268 169.12 163.471 168.72 163.636C168.319 163.786 167.903 163.898 167.422 163.861Z" fill="white"/>
<path d="M167.422 164.881C167.748 164.529 168.127 164.326 168.528 164.16C168.934 164.01 169.35 163.898 169.826 163.935C169.5 164.288 169.12 164.491 168.72 164.657C168.319 164.806 167.897 164.919 167.422 164.881Z" fill="white"/>
<path d="M167.422 165.896C167.748 165.544 168.127 165.341 168.528 165.175C168.934 165.025 169.35 164.913 169.826 164.951C169.5 165.303 169.12 165.506 168.72 165.672C168.314 165.822 167.897 165.939 167.422 165.896Z" fill="white"/>
<path d="M167.417 166.917C167.743 166.564 168.122 166.361 168.523 166.196C168.929 166.046 169.345 165.934 169.821 165.971C169.495 166.324 169.116 166.527 168.715 166.692C168.314 166.842 167.898 166.954 167.417 166.917Z" fill="white"/>
<path d="M167.417 167.937C167.743 167.585 168.122 167.382 168.523 167.216C168.929 167.066 169.345 166.954 169.821 166.992C169.495 167.344 169.116 167.547 168.715 167.713C168.309 167.863 167.892 167.975 167.417 167.937Z" fill="white"/>
<path d="M167.417 168.953C167.743 168.6 168.122 168.397 168.523 168.232C168.929 168.082 169.345 167.97 169.821 168.007C169.495 168.36 169.116 168.563 168.715 168.729C168.309 168.878 167.892 168.996 167.417 168.953Z" fill="white"/>
<path d="M167.411 169.973C167.737 169.621 168.116 169.418 168.517 169.252C168.923 169.103 169.339 168.99 169.815 169.028C169.489 169.38 169.11 169.583 168.709 169.749C168.308 169.899 167.892 170.011 167.411 169.973Z" fill="white"/>
<path d="M167.411 170.994C167.737 170.641 168.116 170.438 168.517 170.273C168.923 170.123 169.339 170.011 169.815 170.048C169.489 170.401 169.11 170.604 168.709 170.77C168.303 170.919 167.887 171.031 167.411 170.994Z" fill="white"/>
<path d="M167.406 172.009C167.732 171.656 168.111 171.453 168.512 171.288C168.918 171.138 169.335 171.026 169.81 171.063C169.484 171.416 169.105 171.619 168.704 171.785C168.304 171.934 167.887 172.047 167.406 172.009Z" fill="white"/>
<path d="M167.406 173.03C167.732 172.677 168.111 172.474 168.512 172.308C168.918 172.159 169.335 172.047 169.81 172.084C169.484 172.437 169.105 172.64 168.704 172.805C168.304 172.955 167.887 173.067 167.406 173.03Z" fill="white"/>
<path d="M167.406 174.045C167.732 173.692 168.111 173.489 168.512 173.323C168.918 173.174 169.335 173.062 169.81 173.099C169.484 173.452 169.105 173.655 168.704 173.82C168.298 173.975 167.882 174.088 167.406 174.045Z" fill="white"/>
<path d="M167.4 175.065C167.726 174.713 168.105 174.51 168.506 174.344C168.912 174.194 169.329 174.082 169.804 174.12C169.478 174.472 169.099 174.675 168.698 174.841C168.298 174.99 167.881 175.103 167.4 175.065Z" fill="white"/>
<path d="M167.4 176.086C167.726 175.733 168.105 175.53 168.506 175.364C168.912 175.215 169.329 175.103 169.804 175.14C169.478 175.493 169.099 175.696 168.698 175.861C168.298 176.011 167.881 176.123 167.4 176.086Z" fill="white"/>
<path d="M167.4 177.101C167.726 176.748 168.105 176.545 168.506 176.38C168.912 176.23 169.329 176.118 169.804 176.155C169.478 176.508 169.099 176.711 168.698 176.877C168.292 177.031 167.876 177.144 167.4 177.101Z" fill="white"/>
<path d="M167.396 178.121C167.721 177.769 168.101 177.566 168.501 177.4C168.907 177.251 169.324 177.138 169.799 177.176C169.473 177.528 169.094 177.731 168.693 177.897C168.293 178.047 167.876 178.159 167.396 178.121Z" fill="white"/>
<path d="M167.396 179.142C167.721 178.789 168.101 178.586 168.501 178.421C168.907 178.271 169.324 178.159 169.799 178.196C169.473 178.549 169.094 178.752 168.693 178.918C168.293 179.067 167.871 179.179 167.396 179.142Z" fill="white"/>
<path d="M167.396 180.157C167.721 179.804 168.101 179.601 168.501 179.436C168.907 179.286 169.324 179.174 169.799 179.211C169.473 179.564 169.094 179.767 168.693 179.933C168.288 180.082 167.871 180.2 167.396 180.157Z" fill="white"/>
<path d="M167.39 181.178C167.715 180.825 168.095 180.622 168.495 180.457C168.901 180.307 169.318 180.195 169.793 180.232C169.467 180.585 169.088 180.788 168.688 180.954C168.287 181.103 167.87 181.215 167.39 181.178Z" fill="white"/>
<path d="M167.39 182.199C167.715 181.846 168.095 181.643 168.495 181.477C168.901 181.328 169.318 181.215 169.793 181.253C169.467 181.606 169.088 181.809 168.688 181.974C168.287 182.124 167.865 182.236 167.39 182.199Z" fill="white"/>
<path d="M167.39 183.214C167.715 182.861 168.095 182.658 168.495 182.492C168.901 182.343 169.318 182.231 169.793 182.268C169.467 182.621 169.088 182.824 168.688 182.989C168.282 183.139 167.865 183.256 167.39 183.214Z" fill="white"/>
<path d="M167.385 184.234C167.711 183.882 168.09 183.679 168.49 183.513C168.896 183.363 169.313 183.251 169.788 183.288C169.463 183.641 169.083 183.844 168.683 184.01C168.282 184.159 167.865 184.272 167.385 184.234Z" fill="white"/>
<path d="M167.385 185.255C167.711 184.902 168.09 184.699 168.49 184.533C168.896 184.384 169.313 184.272 169.788 184.309C169.463 184.662 169.083 184.865 168.683 185.03C168.282 185.18 167.86 185.292 167.385 185.255Z" fill="white"/>
<path d="M167.385 186.27C167.711 185.917 168.09 185.714 168.49 185.549C168.896 185.399 169.313 185.287 169.788 185.324C169.463 185.677 169.083 185.88 168.683 186.045C168.277 186.195 167.86 186.313 167.385 186.27Z" fill="white"/>
<path d="M167.379 187.29C167.705 186.938 168.084 186.735 168.485 186.569C168.891 186.419 169.307 186.307 169.783 186.345C169.457 186.697 169.077 186.9 168.677 187.066C168.276 187.216 167.86 187.328 167.379 187.29Z" fill="white"/>
<path d="M167.379 188.311C167.705 187.958 168.084 187.755 168.485 187.59C168.891 187.44 169.307 187.328 169.783 187.365C169.457 187.718 169.077 187.921 168.677 188.086C168.276 188.236 167.854 188.348 167.379 188.311Z" fill="white"/>
<path d="M167.379 189.326C167.705 188.973 168.084 188.77 168.485 188.605C168.891 188.455 169.307 188.343 169.783 188.38C169.457 188.733 169.077 188.936 168.677 189.102C168.271 189.251 167.854 189.363 167.379 189.326Z" fill="white"/>
<path d="M167.374 190.347C167.7 189.994 168.079 189.791 168.48 189.625C168.886 189.476 169.302 189.363 169.778 189.401C169.452 189.753 169.073 189.956 168.672 190.122C168.271 190.272 167.855 190.384 167.374 190.347Z" fill="white"/>
<path d="M167.374 191.362C167.7 191.009 168.079 190.806 168.48 190.64C168.886 190.491 169.302 190.379 169.778 190.416C169.452 190.769 169.073 190.972 168.672 191.137C168.271 191.292 167.849 191.404 167.374 191.362Z" fill="white"/>
<path d="M167.374 192.382C167.7 192.03 168.079 191.827 168.48 191.661C168.886 191.511 169.302 191.399 169.778 191.436C169.452 191.789 169.073 191.992 168.672 192.158C168.266 192.307 167.849 192.42 167.374 192.382Z" fill="white"/>
<path d="M167.368 193.403C167.694 193.051 168.073 192.847 168.474 192.682C168.88 192.532 169.296 192.42 169.772 192.457C169.446 192.81 169.067 193.013 168.666 193.179C168.266 193.328 167.849 193.441 167.368 193.403Z" fill="white"/>
<path d="M167.368 194.418C167.694 194.066 168.073 193.863 168.474 193.697C168.88 193.547 169.296 193.435 169.772 193.473C169.446 193.825 169.067 194.028 168.666 194.194C168.266 194.349 167.844 194.461 167.368 194.418Z" fill="white"/>
<path d="M167.368 195.439C167.694 195.086 168.073 194.883 168.474 194.717C168.88 194.568 169.296 194.456 169.772 194.493C169.446 194.846 169.067 195.049 168.666 195.214C168.26 195.364 167.844 195.476 167.368 195.439Z" fill="white"/>
<path d="M167.363 196.459C167.689 196.107 168.068 195.904 168.469 195.738C168.875 195.588 169.292 195.476 169.767 195.514C169.441 195.866 169.062 196.069 168.661 196.235C168.261 196.385 167.844 196.497 167.363 196.459Z" fill="white"/>
<path d="M167.363 197.474C167.689 197.122 168.068 196.919 168.469 196.753C168.875 196.604 169.292 196.491 169.767 196.529C169.441 196.881 169.062 197.084 168.661 197.25C168.261 197.405 167.839 197.517 167.363 197.474Z" fill="white"/>
<path d="M167.363 198.495C167.689 198.142 168.068 197.939 168.469 197.774C168.875 197.624 169.292 197.512 169.767 197.549C169.441 197.902 169.062 198.105 168.661 198.271C168.255 198.42 167.839 198.532 167.363 198.495Z" fill="white"/>
<path d="M168.201 137.049C163.34 137.049 159.388 133.095 159.388 128.233C159.388 123.37 163.34 119.417 168.201 119.417C173.062 119.417 177.014 123.37 177.014 128.233C177.014 133.095 173.062 137.049 168.201 137.049ZM168.201 121.019C164.227 121.019 160.99 124.257 160.99 128.233C160.99 132.208 164.227 135.446 168.201 135.446C172.175 135.446 175.412 132.208 175.412 128.233C175.412 124.257 172.175 121.019 168.201 121.019Z" fill="white"/>
<path d="M91.8508 266.332L101.316 284.001C81.3816 294.586 56.6293 287.063 45.9625 267.149L18 214.952L36.5028 205.035L64.5774 257.435C69.983 267.523 82.1935 271.509 91.8508 266.332Z" fill="#A66CFF"/>
<path d="M90.2644 176.209L118.227 228.401C128.92 248.363 121.416 273.219 101.46 283.916L101.316 283.996L91.8508 266.326C101.508 261.149 104.959 248.769 99.5532 238.681L71.4785 186.281L90.2644 176.209Z" fill="#6951AF"/>
<path d="M21.3809 216.865C22.5026 215.887 23.7044 215.053 24.9222 214.252C26.1454 213.461 27.4007 212.729 28.6773 212.04C29.9539 211.351 31.2625 210.715 32.5979 210.132C33.9386 209.561 35.2953 209.021 36.7322 208.631C35.6105 209.614 34.4086 210.448 33.1908 211.244C31.9676 212.034 30.7124 212.766 29.4358 213.45C28.1538 214.134 26.8505 214.775 25.5151 215.358C24.1744 215.935 22.8177 216.475 21.3809 216.865Z" fill="white"/>
<path d="M24.1855 220.941C24.1855 220.941 46.3739 263.286 46.2991 263.377Z" fill="#6951AF"/>
<path d="M24.1855 220.941C26.3275 224.318 28.3359 227.77 30.2855 231.248C31.2736 232.979 32.2137 234.737 33.1752 236.485L35.9848 241.764L38.7143 247.085C39.5956 248.875 40.509 250.649 41.3636 252.45C43.0943 256.046 44.8089 259.652 46.2938 263.371C44.2106 259.957 42.1916 256.516 40.2526 253.027C39.2645 251.296 38.3297 249.533 37.3682 247.785L34.564 242.501L31.8345 237.179C30.9478 235.395 30.0398 233.615 29.1798 231.815C27.4385 228.24 25.7452 224.628 24.1855 220.941Z" fill="white"/>
<path d="M47.2871 230.105C49.0177 232.622 50.6041 235.218 52.1478 237.837C52.933 239.14 53.6648 240.471 54.4233 241.785L56.6186 245.776L58.7392 249.81C59.4175 251.168 60.1226 252.514 60.7796 253.887C62.115 256.618 63.3969 259.375 64.54 262.212C62.8094 259.695 61.2176 257.099 59.6793 254.48C58.8941 253.177 58.1623 251.846 57.4038 250.532L55.2085 246.54L53.0933 242.506C52.4149 241.149 51.7098 239.803 51.0528 238.43C49.7175 235.699 48.4302 232.942 47.2871 230.105Z" fill="#2C365E"/>
<path d="M74.2832 186.852C75.4049 185.875 76.6067 185.041 77.8246 184.24C79.0478 183.449 80.303 182.717 81.5796 182.028C82.8562 181.338 84.1649 180.702 85.5002 180.12C86.8409 179.548 88.1977 179.009 89.6345 178.619C88.5128 179.602 87.311 180.435 86.0931 181.231C84.87 182.022 83.6147 182.754 82.3381 183.438C81.0562 184.122 79.7528 184.763 78.4175 185.346C77.0768 185.923 75.7201 186.462 74.2832 186.852Z" fill="white"/>
<path d="M77.0869 190.929C77.0869 190.929 99.2753 233.274 99.2005 233.364Z" fill="#6951AF"/>
<path d="M77.0869 190.929C79.2288 194.306 81.2372 197.758 83.1868 201.236C84.175 202.967 85.1151 204.725 86.0766 206.472L88.8862 211.751L91.6157 217.073C92.497 218.863 93.4104 220.637 94.265 222.438C95.9956 226.034 97.7102 229.64 99.1952 233.359C97.112 229.945 95.0929 226.504 93.154 223.015C92.1658 221.284 91.2311 219.52 90.2696 217.773L87.4653 212.489L84.7359 207.167C83.8492 205.382 82.9411 203.608 82.0812 201.802C80.3399 198.228 78.6466 194.616 77.0869 190.929Z" fill="white"/>
<path d="M100.188 200.093C101.919 202.609 103.506 205.206 105.049 207.824C105.834 209.128 106.566 210.458 107.325 211.773L109.52 215.764L111.641 219.798C112.319 221.155 113.024 222.502 113.681 223.875C115.016 226.605 116.298 229.362 117.441 232.2C115.711 229.683 114.119 227.086 112.581 224.468C111.795 223.164 111.064 221.834 110.305 220.52L108.11 216.528L105.995 212.494C105.316 211.137 104.611 209.791 103.954 208.417C102.619 205.687 101.332 202.93 100.188 200.093Z" fill="#2C365E"/>
<path d="M78.2568 284.354C81.889 284.862 85.5372 284.878 89.1 284.445C92.6574 283.985 96.1293 283.013 99.2861 281.388C102.443 279.775 105.236 277.499 107.56 274.779C109.862 272.038 111.721 268.902 113.281 265.578C112.346 269.126 110.754 272.546 108.538 275.559C108.276 275.949 107.955 276.291 107.667 276.66C107.368 277.018 107.074 277.386 106.737 277.712L105.755 278.722L104.702 279.663C103.26 280.87 101.69 281.939 100.018 282.81C98.33 283.649 96.562 284.327 94.7512 284.803C92.9351 285.268 91.0817 285.578 89.2175 285.679C85.4998 285.898 81.7448 285.513 78.2568 284.354Z" fill="#2C365E"/>
<path d="M46.5763 226.616C46.6778 226.803 46.7419 227.017 46.7419 227.273C46.7419 227.519 46.6617 227.829 46.4267 228.08C46.2024 228.326 45.8178 228.502 45.4172 228.449C45.0166 228.411 44.6213 228.144 44.4237 227.77C44.2207 227.396 44.2154 226.92 44.4023 226.568C44.5839 226.204 44.9418 225.975 45.273 225.927C45.6095 225.873 45.9139 225.975 46.1169 226.114C46.3359 226.258 46.4748 226.429 46.5763 226.616ZM46.5763 226.616C46.4748 226.424 46.2611 226.306 46.0582 226.322C45.8552 226.333 45.6949 226.482 45.6576 226.632C45.6095 226.787 45.6789 226.915 45.7323 226.963C45.7911 227.017 45.8392 227.001 45.8392 227.011C45.8445 227.017 45.8018 227.043 45.8178 227.129C45.8285 227.204 45.8979 227.332 46.0528 227.375C46.2024 227.423 46.4107 227.375 46.5335 227.209C46.6564 227.054 46.6778 226.808 46.5763 226.616Z" fill="#2C365E"/>
<path d="M119.263 233.802C119.364 233.989 119.428 234.203 119.428 234.46C119.428 234.705 119.348 235.015 119.113 235.266C118.889 235.512 118.504 235.689 118.104 235.635C117.703 235.598 117.308 235.331 117.11 234.956C116.907 234.582 116.902 234.107 117.089 233.754C117.27 233.391 117.628 233.161 117.959 233.113C118.296 233.06 118.6 233.161 118.803 233.3C119.022 233.439 119.161 233.615 119.263 233.802ZM119.263 233.802C119.161 233.61 118.948 233.492 118.745 233.509C118.542 233.519 118.381 233.669 118.344 233.818C118.296 233.973 118.365 234.102 118.419 234.15C118.478 234.203 118.526 234.187 118.526 234.198C118.531 234.203 118.488 234.23 118.504 234.315C118.515 234.39 118.584 234.518 118.739 234.561C118.889 234.609 119.097 234.561 119.22 234.395C119.348 234.241 119.37 233.995 119.263 233.802Z" fill="#2C365E"/>
</g>
<defs>
<clipPath id="clip0_484_4671">
<rect width="237" height="218" fill="white" transform="translate(18 74)"/>
</clipPath>
</defs>
</svg>
